<svg width="260" height="410" viewBox="0 0 260 410" fill="none" xmlns="http://www.w3.org/2000/svg">
<path d="M0 0H260V410H0V0Z" fill="url(#paint0_linear)" fill-opacity="0.8" style="mix-blend-mode:soft-light"/>
<path d="M0 0H260V410H0V0Z" fill="url(#paint1_linear)"/>
<mask id="mask0" mask-type="alpha" maskUnits="userSpaceOnUse" x="0" y="0" width="260" height="410">
<path d="M0 0H260V410H0V0Z" fill="url(#paint2_linear)" fill-opacity="0.8"/>
<path d="M0 0H260V410H0V0Z" fill="url(#paint3_linear)"/>
</mask>
<g mask="url(#mask0)">
<g filter="url(#filter0_f)">
<ellipse cx="87.3438" cy="61.9884" rx="122.891" ry="93.2262" fill="#1C5AF6"/>
</g>
<g filter="url(#filter1_f)">
<ellipse cx="25.8984" cy="328.487" rx="92.9297" ry="116.655" fill="#B0EAFA"/>
</g>
<g filter="url(#filter2_b)">
<path d="M0 0H260V410H0V0Z" fill="white" fill-opacity="0.07" style="mix-blend-mode:soft-light"/>
</g>
</g>
<rect x="90.7539" y="373.285" width="58.7463" height="49.0566" rx="10" transform="rotate(-90 90.7539 373.285)" fill="white" fill-opacity="0.3"/>
<path fill-rule="evenodd" clip-rule="evenodd" d="M100.914 44.6051C101.585 43.9342 102.299 43.307 103.051 42.7293C104.197 41.8712 105.426 41.1259 106.721 40.5107C107.044 40.3556 107.372 40.2118 107.702 40.0737C108.69 39.6783 109.704 39.356 110.737 39.1068C111.261 38.9829 111.789 38.8764 112.323 38.7895C112.39 38.7797 112.457 38.7694 112.523 38.759L112.523 38.759C112.59 38.7487 112.657 38.7384 112.723 38.7286C112.754 38.7243 112.784 38.7205 112.814 38.7167C112.843 38.7129 112.873 38.7091 112.904 38.7047L112.923 38.7017C112.967 38.6962 112.986 38.6937 112.989 38.6931C113.237 38.6636 113.484 38.6381 113.732 38.6199C114.803 38.5308 115.879 38.52 116.952 38.5895C117.222 38.6069 117.487 38.6286 117.754 38.6569C117.878 38.6688 118 38.6826 118.121 38.6965C118.119 38.6964 118.118 38.6965 118.121 38.697C118.124 38.6976 118.13 38.6986 118.141 38.7004C118.178 38.7047 118.215 38.7096 118.251 38.7145C118.287 38.7194 118.324 38.7243 118.361 38.7286C118.893 38.8047 119.423 38.9003 119.952 39.0155C121.133 39.2741 122.29 39.6332 123.414 40.0864C124.715 40.631 125.964 41.3015 127.136 42.0884C127.449 42.298 127.753 42.5159 128.053 42.7407C128.798 43.3146 129.507 43.9373 130.172 44.6029C130.513 44.9441 131.139 44.9702 131.476 44.6029C131.813 44.2356 131.841 43.664 131.476 43.2989C129.818 41.6451 127.897 40.2325 125.811 39.1676C123.796 38.1397 121.621 37.4073 119.386 37.0291C117.098 36.6445 114.794 36.6097 112.495 36.9096C110.25 37.203 108.068 37.8593 106.012 38.8069C103.896 39.7848 101.942 41.117 100.229 42.6991C100.017 42.894 99.8114 43.0954 99.6078 43.2947L99.6056 43.2968C99.2644 43.638 99.2383 44.2639 99.6056 44.6007C99.9772 44.9419 100.547 44.968 100.914 44.6051ZM112.956 38.6972L112.923 38.7017L112.841 38.7119L112.87 38.708C112.89 38.7052 112.91 38.7025 112.93 38.7004L112.956 38.6972ZM112.956 38.6972L112.989 38.6931C112.991 38.6929 112.99 38.693 112.988 38.6932C112.983 38.6937 112.971 38.6952 112.956 38.6972ZM102.907 42.8382C102.938 42.8146 102.969 42.7911 103 42.7677C102.969 42.7912 102.938 42.8147 102.907 42.8382ZM123.22 40.0065C123.272 40.0276 123.324 40.0489 123.376 40.0705L123.22 40.0065ZM128.179 42.836C128.155 42.8177 128.131 42.7994 128.107 42.7811L128.179 42.836ZM109.918 53.5822C110.176 53.3247 110.448 53.0852 110.735 52.8605C111.286 52.4577 111.878 52.1174 112.504 51.8494C112.9 51.6932 113.304 51.5646 113.718 51.4655C113.929 51.4156 114.138 51.3722 114.351 51.3374C114.377 51.3331 114.404 51.3293 114.431 51.3255C114.454 51.3222 114.477 51.3189 114.499 51.3153C114.518 51.3129 114.544 51.3093 114.568 51.3059C114.574 51.3051 114.581 51.3043 114.587 51.3033L114.6 51.3014L114.603 51.3013C114.616 51.3012 114.628 51.301 114.636 51.3005C114.695 51.294 114.756 51.2897 114.817 51.2853L114.817 51.2853C115.25 51.2484 115.689 51.2441 116.122 51.2723C116.229 51.2788 116.338 51.2875 116.444 51.2983C116.478 51.3011 116.512 51.3048 116.547 51.3088C116.615 51.3187 116.652 51.3235 116.667 51.3252C116.861 51.3554 117.053 51.3908 117.245 51.4329C117.71 51.5339 118.165 51.6761 118.606 51.8482C119.235 52.118 119.831 52.4578 120.383 52.862C120.67 53.0872 120.942 53.3285 121.202 53.5844C121.543 53.9252 122.17 53.9513 122.507 53.5844C122.844 53.2175 122.873 52.6465 122.507 52.2818C121.093 50.8793 119.246 49.8915 117.275 49.5615C115.265 49.2229 113.231 49.4899 111.377 50.3409C110.353 50.8121 109.411 51.4872 108.61 52.2818C108.269 52.6227 108.243 53.2479 108.61 53.5844C108.982 53.9209 109.552 53.947 109.918 53.5822ZM116.602 51.3153L116.547 51.3088L116.49 51.3005L116.54 51.307L116.59 51.3135L116.602 51.3153ZM116.602 51.3153L116.667 51.3252C116.699 51.3288 116.644 51.3197 116.605 51.3157L116.605 51.3157L116.602 51.3153ZM114.6 51.3014C114.556 51.302 114.497 51.3032 114.475 51.3179C114.475 51.3183 114.485 51.3172 114.499 51.3153L114.51 51.3135C114.523 51.3114 114.537 51.3097 114.55 51.3081L114.568 51.3059L114.587 51.3033C114.588 51.3031 114.589 51.3029 114.591 51.3027C114.594 51.3022 114.597 51.3018 114.6 51.3014ZM114.6 51.3014C114.6 51.3014 114.6 51.3014 114.6 51.3014C114.649 51.2944 114.634 51.2966 114.6 51.3014ZM110.62 52.9461L110.672 52.9073C110.655 52.9203 110.638 52.9332 110.62 52.9461ZM112.665 51.7825L112.569 51.8219C112.601 51.8086 112.633 51.7954 112.665 51.7825ZM120.499 52.9483C120.482 52.9355 120.465 52.9227 120.448 52.9099L120.499 52.9483ZM106.867 47.7435C106.344 48.1483 105.845 48.5853 105.376 49.0527C105.011 49.4175 104.441 49.3914 104.071 49.0571C103.703 48.7206 103.73 48.0953 104.071 47.7545C104.219 47.6069 104.369 47.4614 104.524 47.3203C105.755 46.187 107.158 45.2296 108.679 44.5284C110.158 43.8467 111.722 43.3756 113.337 43.1628C115.012 42.9414 116.678 42.9674 118.345 43.2453C119.954 43.5145 121.523 44.0464 122.978 44.7867C124.477 45.5487 125.856 46.5647 127.049 47.7501C127.414 48.1148 127.386 48.6858 127.049 49.0527C126.711 49.4196 126.085 49.3935 125.743 49.0527C125.275 48.5853 124.776 48.1482 124.253 47.7435C123.26 47.0066 122.18 46.3914 121.039 45.911C120.254 45.5978 119.439 45.347 118.612 45.1666C118.244 45.0863 117.872 45.019 117.498 44.9669C117.489 44.9657 117.48 44.9641 117.47 44.9623C117.465 44.9618 117.459 44.9611 117.453 44.9604L117.394 44.9539C117.307 44.9409 117.22 44.9322 117.133 44.9235C116.939 44.9039 116.746 44.8888 116.55 44.8757C115.79 44.8258 115.029 44.8345 114.274 44.8974C114.113 44.9087 113.952 44.9264 113.79 44.9449C113.858 44.9361 113.791 44.9434 113.748 44.9495C113.741 44.9504 113.735 44.9512 113.728 44.9521C113.723 44.9527 113.718 44.9533 113.713 44.9539L113.713 44.9539C113.7 44.9561 113.686 44.9577 113.673 44.9593C113.659 44.9609 113.645 44.9626 113.632 44.9647C113.645 44.9632 113.656 44.9618 113.667 44.9605C113.647 44.9633 113.627 44.9662 113.606 44.9691L113.606 44.9691L113.345 45.0082C112.965 45.0711 112.586 45.1449 112.214 45.2339C111.486 45.4071 110.774 45.6338 110.083 45.9098C108.941 46.3904 107.86 47.0061 106.867 47.7435ZM106.725 47.85C106.753 47.8289 106.781 47.8079 106.809 47.787C106.781 47.808 106.754 47.829 106.725 47.85ZM110.247 45.8418L110.162 45.8768C110.191 45.865 110.219 45.8534 110.247 45.8418ZM113.667 44.9605C113.728 44.9529 113.767 44.948 113.79 44.9449C113.77 44.9473 113.749 44.9497 113.728 44.9521C113.707 44.9549 113.687 44.9577 113.667 44.9605ZM117.468 44.9619C117.46 44.9605 117.453 44.959 117.445 44.9574C117.408 44.95 117.369 44.9423 117.337 44.9452C117.336 44.9465 117.424 44.9568 117.468 44.9619ZM120.872 45.8418C120.901 45.8534 120.929 45.865 120.957 45.8768L120.872 45.8418ZM124.395 47.85C124.366 47.829 124.339 47.808 124.311 47.787C124.339 47.8079 124.367 47.8289 124.395 47.85Z" fill="white" fill-opacity="0.4"/>
<defs>
<filter id="filter0_f" x="-109.547" y="-105.238" width="393.781" height="334.452" filterUnits="userSpaceOnUse" color-interpolation-filters="sRGB">
<feFlood flood-opacity="0" result="BackgroundImageFix"/>
<feBlend mode="normal" in="SourceGraphic" in2="BackgroundImageFix" result="shape"/>
<feGaussianBlur stdDeviation="37" result="effect1_foregroundBlur"/>
</filter>
<filter id="filter1_f" x="-191.031" y="87.832" width="433.859" height="481.31" filterUnits="userSpaceOnUse" color-interpolation-filters="sRGB">
<feFlood flood-opacity="0" result="BackgroundImageFix"/>
<feBlend mode="normal" in="SourceGraphic" in2="BackgroundImageFix" result="shape"/>
<feGaussianBlur stdDeviation="62" result="effect1_foregroundBlur"/>
</filter>
<filter id="filter2_b" x="-40" y="-40" width="340" height="490" filterUnits="userSpaceOnUse" color-interpolation-filters="sRGB">
<feFlood flood-opacity="0" result="BackgroundImageFix"/>
<feGaussianBlur in="BackgroundImage" stdDeviation="20"/>
<feComposite in2="SourceAlpha" operator="in" result="effect1_backgroundBlur"/>
<feBlend mode="normal" in="SourceGraphic" in2="effect1_backgroundBlur" result="shape"/>
</filter>
<linearGradient id="paint0_linear" x1="245.781" y1="6.83333" x2="13.7864" y2="394.815" gradientUnits="userSpaceOnUse">
<stop stop-color="#55C0F7"/>
<stop offset="1" stop-color="#A8E8FA"/>
</linearGradient>
<linearGradient id="paint1_linear" x1="8.125" y1="5.85714" x2="239.188" y2="417.967" gradientUnits="userSpaceOnUse">
<stop stop-color="#1B5CF6"/>
<stop offset="0.503297" stop-color="#429EFF"/>
<stop offset="1" stop-color="#CB5BAA"/>
</linearGradient>
<linearGradient id="paint2_linear" x1="245.781" y1="6.83333" x2="13.7864" y2="394.815" gradientUnits="userSpaceOnUse">
<stop stop-color="#55C0F7"/>
<stop offset="1" stop-color="#A8E8FA"/>
</linearGradient>
<linearGradient id="paint3_linear" x1="8.125" y1="5.85714" x2="239.188" y2="417.967" gradientUnits="userSpaceOnUse">
<stop stop-color="#1B5CF6"/>
<stop offset="0.503297" stop-color="#429EFF"/>
<stop offset="0.890632" stop-color="#D33BA7"/>
</linearGradient>
</defs>
</svg>
