<svg width="26" height="26" viewBox="0 0 26 26" fill="none" xmlns="http://www.w3.org/2000/svg">
<path d="M25.135 5.95628C24.616 5.41255 23.8992 5.09126 23.0837 5.09126H18.981V5.04183C18.981 4.42396 18.7338 3.8308 18.3137 3.43537C17.8935 3.01521 17.3251 2.76807 16.7072 2.76807H9.29278C8.65019 2.76807 8.08175 3.01521 7.6616 3.43537C7.24145 3.85552 6.9943 4.42396 6.9943 5.04183V5.09126H2.91635C2.10076 5.09126 1.38403 5.41255 0.865019 5.95628C0.346008 6.47529 0 7.21674 0 8.00761V20.3156C0 21.1312 0.321293 21.8479 0.865019 22.3669C1.38403 22.8859 2.12548 23.2319 2.91635 23.2319H23.0837C23.8992 23.2319 24.616 22.9107 25.135 22.3669C25.654 21.8479 26 21.1065 26 20.3156V8.00761C26 7.19202 25.6787 6.47529 25.135 5.95628ZM24.7148 20.3156H24.6901C24.6901 20.7605 24.5171 21.1559 24.2205 21.4525C23.924 21.7491 23.5285 21.9221 23.0837 21.9221H2.91635C2.47148 21.9221 2.07605 21.7491 1.77947 21.4525C1.48289 21.1559 1.30989 20.7605 1.30989 20.3156V8.00761C1.30989 7.56274 1.48289 7.16731 1.77947 6.87073C2.07605 6.57415 2.47148 6.40115 2.91635 6.40115H7.68631C8.05703 6.40115 8.35361 6.10457 8.35361 5.73385V5.01712C8.35361 4.74525 8.45247 4.4981 8.62548 4.3251C8.79848 4.1521 9.04563 4.05324 9.31749 4.05324H16.7072C16.9791 4.05324 17.2262 4.1521 17.3992 4.3251C17.5722 4.4981 17.6711 4.74525 17.6711 5.01712V5.73385C17.6711 6.10457 17.9677 6.40115 18.3384 6.40115H23.1084C23.5532 6.40115 23.9487 6.57415 24.2452 6.87073C24.5418 7.16731 24.7148 7.56274 24.7148 8.00761V20.3156Z" fill="white" fill-opacity="0.7"/>
<path d="M12.9998 8.08154C11.3192 8.08154 9.78684 8.77356 8.69939 9.86101C7.58722 10.9732 6.91992 12.4808 6.91992 14.1614C6.91992 15.842 7.61194 17.3743 8.69939 18.4618C9.81156 19.5739 11.3192 20.2413 12.9998 20.2413C14.6804 20.2413 16.2127 19.5492 17.3002 18.4618C18.4123 17.3496 19.0796 15.842 19.0796 14.1614C19.0796 12.4808 18.3876 10.9485 17.3002 9.86101C16.2127 8.77356 14.6804 8.08154 12.9998 8.08154ZM16.361 17.5473C15.496 18.3876 14.3097 18.9314 12.9998 18.9314C11.6899 18.9314 10.5036 18.3876 9.63855 17.5473C8.77353 16.6823 8.25452 15.496 8.25452 14.1861C8.25452 12.8762 8.79825 11.6899 9.63855 10.8249C10.5036 9.95987 11.6899 9.44086 12.9998 9.44086C14.3097 9.44086 15.496 9.98459 16.361 10.8249C17.226 11.6899 17.745 12.8762 17.745 14.1861C17.7697 15.496 17.226 16.6823 16.361 17.5473Z" fill="white" fill-opacity="0.7"/>
<path d="M21.7979 10.4792C22.4668 10.4792 23.009 9.93699 23.009 9.26816C23.009 8.59932 22.4668 8.05713 21.7979 8.05713C21.1291 8.05713 20.5869 8.59932 20.5869 9.26816C20.5869 9.93699 21.1291 10.4792 21.7979 10.4792Z" fill="white" fill-opacity="0.7"/>
</svg>
