<svg width="335" height="212" viewBox="0 0 335 212" fill="none" xmlns="http://www.w3.org/2000/svg">
<path d="M335 212L335 -4.57764e-05L9.26682e-06 -6.04197e-05L0 212L335 212Z" fill="url(#paint0_linear)" fill-opacity="0.8" style="mix-blend-mode:soft-light"/>
<path d="M335 212L335 -4.57764e-05L9.26682e-06 -6.04197e-05L0 212L335 212Z" fill="url(#paint1_linear)"/>
<mask id="mask0" mask-type="alpha" maskUnits="userSpaceOnUse" x="0" y="0" width="335" height="212">
<path d="M335 212L335 -4.57764e-05L9.26682e-06 -6.04197e-05L0 212L335 212Z" fill="url(#paint2_linear)" fill-opacity="0.8"/>
<path d="M335 212L335 -4.57764e-05L9.26682e-06 -6.04197e-05L0 212L335 212Z" fill="url(#paint3_linear)"/>
</mask>
<g mask="url(#mask0)">
<g filter="url(#filter0_f)">
<ellipse rx="123.5" ry="175.524" transform="matrix(4.37114e-08 -1 -1 -4.37114e-08 184.815 111.5)" fill="#1C5AF6"/>
</g>
</g>
<path d="M0 30H335V86H0V30Z" fill="black" fill-opacity="0.6"/>
<path d="M17 102H319V146H17V102Z" fill="white" fill-opacity="0.3"/>
<defs>
<filter id="filter0_f" x="-64.709" y="-85.9998" width="499.048" height="395" filterUnits="userSpaceOnUse" color-interpolation-filters="sRGB">
<feFlood flood-opacity="0" result="BackgroundImageFix"/>
<feBlend mode="normal" in="SourceGraphic" in2="BackgroundImageFix" result="shape"/>
<feGaussianBlur stdDeviation="37" result="effect1_foregroundBlur"/>
</filter>
<linearGradient id="paint0_linear" x1="329.417" y1="11.5937" x2="12.753" y2="201.336" gradientUnits="userSpaceOnUse">
<stop stop-color="#55C0F7"/>
<stop offset="1" stop-color="#A8E8FA"/>
</linearGradient>
<linearGradient id="paint1_linear" x1="330.214" y1="205.375" x2="-6.17632" y2="16.3757" gradientUnits="userSpaceOnUse">
<stop stop-color="#1B5CF6"/>
<stop offset="0.503297" stop-color="#429EFF"/>
<stop offset="1" stop-color="#CB5BAA"/>
</linearGradient>
<linearGradient id="paint2_linear" x1="329.417" y1="11.5937" x2="12.753" y2="201.336" gradientUnits="userSpaceOnUse">
<stop stop-color="#55C0F7"/>
<stop offset="1" stop-color="#A8E8FA"/>
</linearGradient>
<linearGradient id="paint3_linear" x1="330.214" y1="205.375" x2="-6.17632" y2="16.3757" gradientUnits="userSpaceOnUse">
<stop stop-color="#1B5CF6"/>
<stop offset="0.503297" stop-color="#429EFF"/>
<stop offset="0.890632" stop-color="#D33BA7"/>
</linearGradient>
</defs>
</svg>
