<svg width="33" height="29" viewBox="0 0 33 29" fill="none" xmlns="http://www.w3.org/2000/svg">
<path fill-rule="evenodd" clip-rule="evenodd" d="M28.9812 5.26015C29.3445 5.58169 29.6891 5.9256 30.0126 6.29037L31.7647 5.69338C30.4279 3.87431 27.1046 2.1451 25.0322 1.45692C23.024 0.509368 20.6556 0.642295 18.4345 0.766958L18.3298 0.772834C16.0786 0.89892 13.8942 1.58511 11.9742 2.76936C10.0542 3.95363 8.45907 5.5986 7.33304 7.55558C7.62919 7.46115 7.96788 7.36673 8.27007 7.28248L8.27024 7.28243C8.73833 7.15194 9.11897 7.0458 9.11897 7.00162C9.39648 6.94795 9.75527 6.69458 10.1188 6.43778C10.517 6.15651 10.9209 5.87119 11.2301 5.83987C13.4464 3.24184 17.3088 2.23457 20.9877 2.23457C22.1833 2.23338 23.3695 2.41035 24.5081 2.75728C23.371 2.68463 21.5399 3.32321 20.5108 3.71853C21.3853 3.47357 22.3016 3.41711 23.1995 3.55288C24.0973 3.68864 24.9562 4.01354 25.7196 4.50617C26.0311 4.70856 26.325 4.93688 26.5981 5.18883C26.5721 5.16653 26.546 5.14406 26.5201 5.12167C26.4616 5.07117 26.4039 5.02132 26.3485 4.97625C26.6998 5.33535 27.0072 5.73487 27.2645 6.16651C27.8572 7.16217 28.1712 8.29952 28.1734 9.45881C28.1757 10.6182 27.866 11.7566 27.277 12.7545C26.6881 13.7525 25.8416 14.573 24.8266 15.1297C23.8116 15.6865 22.6656 15.9589 21.5092 15.9183C21.5334 15.6709 21.4813 15.422 21.3599 15.2051C21.2385 14.9882 21.0537 14.8139 20.8303 14.7056C20.3486 14.4731 19.9143 14.288 19.455 14.098C18.9958 13.908 18.5441 13.7329 18.0874 13.5654C17.6306 13.3979 17.1115 13.2179 16.6173 13.0654C16.5478 13.0409 16.4771 13.0191 16.4061 12.997C16.375 12.9874 16.3439 12.9777 16.3128 12.9678C15.9809 12.8628 15.644 12.7603 15.3145 12.6653C13.4421 12.1196 11.5254 11.7397 9.58655 11.53C7.65472 11.3159 6.36518 11.222 4.44614 11.5308C3.64979 11.6713 3.11831 11.8699 2.43338 12.1261C2.30165 12.1753 2.16425 12.2267 2.01819 12.2802C1.87021 12.3387 1.7429 12.3878 1.62983 12.4314C1.06151 12.6507 0.852581 12.7313 0.183105 13.1694C0.617261 12.9494 0.637019 12.9283 0.660551 12.9133C0.682755 12.8991 0.708308 12.8903 1.08829 12.7253C1.99598 12.4953 2.92222 12.3463 3.85617 12.2802C4.54537 12.2437 5.23521 12.2419 5.92313 12.2744C5.82824 12.3088 5.74018 12.3513 5.6602 12.4031C5.56511 13.0447 5.51995 13.722 5.52355 14.3706C5.52388 17.2333 6.42647 20.0229 8.10248 22.3416C9.77849 24.6602 12.1425 26.3895 14.8573 27.2828C17.5721 28.1762 20.4991 28.1878 23.221 27.3164C25.9428 26.4449 30.009 24.2589 31.7035 21.9538C30.5704 23.2306 28.302 24.8059 26.7459 25.505C25.1899 26.2041 22.6931 26.4869 20.9877 26.4854C17.7807 26.4854 14.7049 25.2089 12.4372 22.937C10.1694 20.6651 8.89541 17.5836 8.89541 14.3706C8.89434 14.0415 8.97008 13.4919 9.03137 13.0471V13.047C9.05052 12.9077 9.06837 12.7785 9.08187 12.6697C9.18873 12.6916 9.29538 12.7142 9.40191 12.7378C11.2174 13.1297 12.9948 13.682 14.713 14.3881C15.5716 14.7415 16.416 15.1224 17.2463 15.5308C17.6606 15.7358 18.0707 15.9476 18.4767 16.1659C18.5213 16.1905 18.5663 16.215 18.6113 16.2397C18.7955 16.3404 18.9821 16.4425 19.1606 16.551H19.1805C19.3253 16.6435 19.4725 16.731 19.6198 16.8011L19.6423 16.8161L19.7571 16.8786L19.817 16.9035C21.4599 17.6927 23.3398 17.8306 25.0799 17.2896C26.8201 16.7487 28.2918 15.5688 29.2003 13.9866C30.1088 12.4043 30.3869 10.5366 29.9788 8.75757C29.9227 8.51259 29.8701 8.26334 29.8173 8.01299C29.6148 7.05277 29.4089 6.07621 28.9812 5.26015ZM10.0371 7.31318C10.2225 7.29586 10.4245 7.33152 10.6255 7.36696C10.8006 7.39788 10.9749 7.42857 11.1365 7.42395C11.0372 7.48962 10.9612 7.49859 10.8984 7.50602C10.8222 7.51499 10.7655 7.52174 10.7104 7.62468C10.0733 7.66046 9.45568 7.83232 8.81305 8.12308C8.37778 8.20058 7.94613 8.35845 7.51877 8.51477L7.51871 8.51482C7.28356 8.60079 7.04972 8.68629 6.81717 8.75774C6.82327 8.7407 6.82931 8.7235 6.83542 8.70624C6.89766 8.52946 6.96454 8.33947 7.15969 8.07461C7.17878 8.04872 7.26668 8.02408 7.31226 8.01134L7.32045 8.00905C7.56808 7.93921 7.81288 7.86239 8.05706 7.78574C8.70805 7.58147 9.35446 7.37862 10.0371 7.31318ZM10.4447 8.63136C10.0663 9.38045 9.76205 10.0782 9.51634 10.8766C8.67376 10.8414 7.73555 10.9322 6.84801 11.0181H6.8479H6.84784C6.56423 11.0455 6.28576 11.0725 6.01729 11.0947C6.1868 10.451 6.43545 9.73465 6.78384 9.12256C7.50967 8.93778 9.05633 8.56352 10.4447 8.63136Z" fill="black"/>
<path fill-rule="evenodd" clip-rule="evenodd" d="M28.9812 5.26015C29.3445 5.58169 29.6891 5.9256 30.0126 6.29037L31.7647 5.69338C30.4279 3.87431 27.1046 2.1451 25.0322 1.45692C23.024 0.509368 20.6556 0.642295 18.4345 0.766958L18.3298 0.772834C16.0786 0.89892 13.8942 1.58511 11.9742 2.76936C10.0542 3.95363 8.45907 5.5986 7.33304 7.55558C7.62919 7.46115 7.96788 7.36673 8.27007 7.28248L8.27024 7.28243C8.73833 7.15194 9.11897 7.0458 9.11897 7.00162C9.39648 6.94795 9.75527 6.69458 10.1188 6.43778C10.517 6.15651 10.9209 5.87119 11.2301 5.83987C13.4464 3.24184 17.3088 2.23457 20.9877 2.23457C22.1833 2.23338 23.3695 2.41035 24.5081 2.75728C23.371 2.68463 21.5399 3.32321 20.5108 3.71853C21.3853 3.47357 22.3016 3.41711 23.1995 3.55288C24.0973 3.68864 24.9562 4.01354 25.7196 4.50617C26.0311 4.70856 26.325 4.93688 26.5981 5.18883C26.5721 5.16653 26.546 5.14406 26.5201 5.12167C26.4616 5.07117 26.4039 5.02132 26.3485 4.97625C26.6998 5.33535 27.0072 5.73487 27.2645 6.16651C27.8572 7.16217 28.1712 8.29952 28.1734 9.45881C28.1757 10.6182 27.866 11.7566 27.277 12.7545C26.6881 13.7525 25.8416 14.573 24.8266 15.1297C23.8116 15.6865 22.6656 15.9589 21.5092 15.9183C21.5334 15.6709 21.4813 15.422 21.3599 15.2051C21.2385 14.9882 21.0537 14.8139 20.8303 14.7056C20.3486 14.4731 19.9143 14.288 19.455 14.098C18.9958 13.908 18.5441 13.7329 18.0874 13.5654C17.6306 13.3979 17.1115 13.2179 16.6173 13.0654C16.5478 13.0409 16.4771 13.0191 16.4061 12.997C16.375 12.9874 16.3439 12.9777 16.3128 12.9678C15.9809 12.8628 15.644 12.7603 15.3145 12.6653C13.4421 12.1196 11.5254 11.7397 9.58655 11.53C7.65472 11.3159 6.36518 11.222 4.44614 11.5308C3.64979 11.6713 3.11831 11.8699 2.43338 12.1261C2.30165 12.1753 2.16425 12.2267 2.01819 12.2802C1.87021 12.3387 1.7429 12.3878 1.62983 12.4314C1.06151 12.6507 0.852581 12.7313 0.183105 13.1694C0.617261 12.9494 0.637019 12.9283 0.660551 12.9133C0.682755 12.8991 0.708308 12.8903 1.08829 12.7253C1.99598 12.4953 2.92222 12.3463 3.85617 12.2802C4.54537 12.2437 5.23521 12.2419 5.92313 12.2744C5.82824 12.3088 5.74018 12.3513 5.6602 12.4031C5.56511 13.0447 5.51995 13.722 5.52355 14.3706C5.52388 17.2333 6.42647 20.0229 8.10248 22.3416C9.77849 24.6602 12.1425 26.3895 14.8573 27.2828C17.5721 28.1762 20.4991 28.1878 23.221 27.3164C25.9428 26.4449 30.009 24.2589 31.7035 21.9538C30.5704 23.2306 28.302 24.8059 26.7459 25.505C25.1899 26.2041 22.6931 26.4869 20.9877 26.4854C17.7807 26.4854 14.7049 25.2089 12.4372 22.937C10.1694 20.6651 8.89541 17.5836 8.89541 14.3706C8.89434 14.0415 8.97008 13.4919 9.03137 13.0471V13.047C9.05052 12.9077 9.06837 12.7785 9.08187 12.6697C9.18873 12.6916 9.29538 12.7142 9.40191 12.7378C11.2174 13.1297 12.9948 13.682 14.713 14.3881C15.5716 14.7415 16.416 15.1224 17.2463 15.5308C17.6606 15.7358 18.0707 15.9476 18.4767 16.1659C18.5213 16.1905 18.5663 16.215 18.6113 16.2397C18.7955 16.3404 18.9821 16.4425 19.1606 16.551H19.1805C19.3253 16.6435 19.4725 16.731 19.6198 16.8011L19.6423 16.8161L19.7571 16.8786L19.817 16.9035C21.4599 17.6927 23.3398 17.8306 25.0799 17.2896C26.8201 16.7487 28.2918 15.5688 29.2003 13.9866C30.1088 12.4043 30.3869 10.5366 29.9788 8.75757C29.9227 8.51259 29.8701 8.26334 29.8173 8.01299C29.6148 7.05277 29.4089 6.07621 28.9812 5.26015ZM10.0371 7.31318C10.2225 7.29586 10.4245 7.33152 10.6255 7.36696C10.8006 7.39788 10.9749 7.42857 11.1365 7.42395C11.0372 7.48962 10.9612 7.49859 10.8984 7.50602C10.8222 7.51499 10.7655 7.52174 10.7104 7.62468C10.0733 7.66046 9.45568 7.83232 8.81305 8.12308C8.37778 8.20058 7.94613 8.35845 7.51877 8.51477L7.51871 8.51482C7.28356 8.60079 7.04972 8.68629 6.81717 8.75774C6.82327 8.7407 6.82931 8.7235 6.83542 8.70624C6.89766 8.52946 6.96454 8.33947 7.15969 8.07461C7.17878 8.04872 7.26668 8.02408 7.31226 8.01134L7.32045 8.00905C7.56808 7.93921 7.81288 7.86239 8.05706 7.78574C8.70805 7.58147 9.35446 7.37862 10.0371 7.31318ZM10.4447 8.63136C10.0663 9.38045 9.76205 10.0782 9.51634 10.8766C8.67376 10.8414 7.73555 10.9322 6.84801 11.0181H6.8479H6.84784C6.56423 11.0455 6.28576 11.0725 6.01729 11.0947C6.1868 10.451 6.43545 9.73465 6.78384 9.12256C7.50967 8.93778 9.05633 8.56352 10.4447 8.63136Z" fill="url(#paint0_linear)"/>
<path d="M30.0117 6.29284L29.842 6.44876L29.9423 6.56187L30.0843 6.51352L30.0117 6.29284ZM28.9803 5.26263L29.1303 5.087L28.7786 5.37217L28.9803 5.26263ZM31.7638 5.69586L31.8363 5.91653L32.1363 5.81433L31.9469 5.55646L31.7638 5.69586ZM25.0313 1.4594L24.9351 1.67053L24.9475 1.67635L24.9603 1.68064L25.0313 1.4594ZM18.4337 0.769431L18.4462 1.00179L18.4337 0.769431ZM18.3289 0.775307L18.3414 1.00767H18.3415L18.3289 0.775307ZM11.9733 2.77183L11.8548 2.5728L11.9733 2.77183ZM7.33211 7.55804L7.13486 7.44047L6.83578 7.96025L7.40045 7.78015L7.33211 7.55804ZM8.26919 7.28495L8.32957 7.5094L8.33149 7.50883L8.26919 7.28495ZM8.26936 7.2849L8.22451 7.05673L8.21564 7.0585L8.207 7.06102L8.26936 7.2849ZM8.26936 7.2849L8.31421 7.51306L8.322 7.51152L8.32974 7.50935L8.26936 7.2849ZM9.11809 7.00409L9.07539 6.77552L8.88944 6.81147V7.00409H9.11809ZM10.1179 6.44025L10.2482 6.63143L10.1179 6.44025ZM11.2293 5.84234L11.2519 6.07388L11.3423 6.06473L11.4019 5.99494L11.2293 5.84234ZM20.9868 2.23704V2.46976H20.987L20.9868 2.23704ZM24.5072 2.75975L24.4929 2.99201L24.5728 2.53681L24.5072 2.75975ZM20.51 3.721L20.4292 3.50328L20.5706 3.94538L20.51 3.721ZM23.1986 3.55535L23.2322 3.32516L23.1986 3.55535ZM25.7187 4.50864L25.8417 4.31248L25.8412 4.31211L25.7187 4.50864ZM26.5973 5.1913L26.4503 5.36953L26.7508 5.01885L26.5973 5.1913ZM26.5192 5.12414L26.3713 5.30159L26.5192 5.12414ZM26.3477 4.97873L26.4905 4.79699L26.1857 5.14294L26.3477 4.97873ZM27.2636 6.16898L27.4592 6.04838L27.4591 6.04827L27.2636 6.16898ZM28.1726 9.46128L28.4012 9.46082L28.1726 9.46128ZM27.2761 12.757L27.4722 12.8769L27.2761 12.757ZM21.5083 15.9208L21.2808 15.8978L21.2565 16.1449L21.5004 16.1534L21.5083 15.9208ZM21.359 15.2076L21.5576 15.0924L21.359 15.2076ZM20.8294 14.7081L20.9277 14.498L20.9274 14.4979L20.8294 14.7081ZM19.4542 14.1005L19.3681 14.3161L19.4542 14.1005ZM18.0865 13.5679L18.164 13.3489L18.0865 13.5679ZM16.6164 13.0678L16.542 13.2878L16.546 13.2892L16.5501 13.2905L16.6164 13.0678ZM16.4052 12.9995L16.3385 13.222L16.4052 12.9995ZM16.3119 12.9703L16.3801 12.7481L16.3798 12.7481L16.3119 12.9703ZM15.3136 12.6677L15.2507 12.8915L15.2513 12.8916L15.3136 12.6677ZM9.58567 11.5325L9.56093 11.7639L9.56156 11.7639L9.58567 11.5325ZM4.44525 11.5332L4.40953 11.3034L4.40621 11.3039L4.44525 11.5332ZM2.4325 12.1285L2.35367 11.9101L2.4325 12.1285ZM2.01731 12.2827L1.93991 12.0637L1.9372 12.0647L1.93453 12.0658L2.01731 12.2827ZM1.62895 12.4339L1.70998 12.6515L1.62895 12.4339ZM0.182221 13.1719L0.0585938 12.9761L0.284102 13.3802L0.182221 13.1719ZM0.659669 12.9157L0.538148 12.7187H0.538143L0.659669 12.9157ZM1.08741 12.7277L1.03218 12.5019L1.01446 12.5064L0.997668 12.5138L1.08741 12.7277ZM3.85529 12.2827L3.84342 12.0502L3.83941 12.0505L3.85529 12.2827ZM5.92225 12.2769L5.99879 12.4962L5.93293 12.0444L5.92225 12.2769ZM5.65926 12.4056L5.53656 12.2092L5.44871 12.2661L5.4332 12.3709L5.65926 12.4056ZM5.52267 14.373H5.75127V14.3717L5.52267 14.373ZM8.10154 22.3441L7.91746 22.482L8.10154 22.3441ZM14.8564 27.2853L14.9267 27.0639L14.8564 27.2853ZM23.22 27.3189L23.2887 27.5409L23.22 27.3189ZM31.7026 21.9563L31.8857 22.0957L31.533 21.8003L31.7026 21.9563ZM26.745 25.5075L26.6527 25.2946L26.745 25.5075ZM20.9868 26.4879L20.987 26.2552H20.9868V26.4879ZM12.4363 22.9395L12.2759 23.1053L12.4363 22.9395ZM8.89453 14.373H9.12312V14.3722L8.89453 14.373ZM9.03049 13.0495L9.25688 13.0819L9.25722 13.0791L9.03049 13.0495ZM9.03049 13.0495L8.80404 13.0171L8.8037 13.0199L9.03049 13.0495ZM9.08098 12.6722L9.12606 12.444L8.88515 12.3948L8.85425 12.6429L9.08098 12.6722ZM9.40103 12.7403L9.35251 12.9677L9.35358 12.9679L9.40103 12.7403ZM14.7121 14.3906L14.7978 14.1748L14.7977 14.1748L14.7121 14.3906ZM17.2454 15.5332L17.3454 15.324L17.3449 15.3237L17.2454 15.5332ZM18.4758 16.1684L18.5846 15.9637L18.5826 15.9627L18.4758 16.1684ZM18.6104 16.2421L18.7186 16.0371L18.6104 16.2421ZM19.1597 16.5535L19.0425 16.7533L19.0966 16.7862H19.1597V16.5535ZM19.1796 16.5535L19.3012 16.3564L19.2455 16.3207H19.1796V16.5535ZM19.6189 16.8035L19.7444 16.6089L19.7306 16.5998L19.7156 16.5927L19.6189 16.8035ZM19.6414 16.8186L19.516 17.0131L19.5245 17.0188L19.5335 17.0238L19.6414 16.8186ZM19.7562 16.881L19.6484 17.0862L19.6587 17.0919L19.6695 17.0964L19.7562 16.881ZM19.8161 16.906L19.9137 16.6956L19.9083 16.693L19.9028 16.6907L19.8161 16.906ZM25.079 17.2921L25.1458 17.5147L25.079 17.2921ZM29.1994 13.9891L29.3968 14.1065L29.1994 13.9891ZM29.9779 8.76009L29.7553 8.81302L29.9779 8.76009ZM29.8164 8.01546L29.5929 8.06427L29.8164 8.01546ZM10.6246 7.36943L10.5855 7.59874L10.6246 7.36943ZM10.0363 7.31565L10.0153 7.08394L10.0148 7.08399L10.0363 7.31565ZM11.1356 7.42641L11.2602 7.6216L11.9425 7.17036L11.1292 7.19379L11.1356 7.42641ZM10.8975 7.50849L10.9239 7.73969L10.8975 7.50849ZM10.7095 7.62715L10.7221 7.85954L10.8493 7.8524L10.9102 7.73849L10.7095 7.62715ZM8.81217 8.12555L8.85154 8.3548L8.87928 8.34983L8.90498 8.33822L8.81217 8.12555ZM7.51788 8.51724L7.57335 8.74306L7.58437 8.7402L7.59516 8.73626L7.51788 8.51724ZM7.51783 8.51729L7.46242 8.29153L7.44462 8.29598L7.42779 8.30336L7.51783 8.51729ZM7.51783 8.51729L7.5951 8.73626L7.60159 8.73391L7.60787 8.73117L7.51783 8.51729ZM6.81629 8.76021L6.60148 8.68064L6.44524 9.11732L6.88238 8.98306L6.81629 8.76021ZM6.83453 8.70871L6.61933 8.63018L6.83453 8.70871ZM7.15881 8.07708L6.97597 7.93745L7.15881 8.07708ZM7.31138 8.01381L7.37198 8.2382L7.37215 8.23814L7.31138 8.01381ZM7.31951 8.01152L7.38029 8.23591L7.38057 8.2358L7.31951 8.01152ZM8.05618 7.78821L7.98885 7.56587L8.05618 7.78821ZM9.51546 10.879L9.50614 11.1115L9.68125 11.1189L9.73366 10.9486L9.51546 10.879ZM10.4438 8.63383L10.6471 8.74026L10.8096 8.4187L10.4548 8.40138L10.4438 8.63383ZM6.84713 11.0206L6.86718 11.2524L6.86876 11.2523L6.84713 11.0206ZM6.84702 11.0206L6.82696 10.7887L6.82425 10.789L6.84702 11.0206ZM6.84702 11.0206L6.86453 11.2527L6.86972 11.2521L6.84702 11.0206ZM6.84696 11.0206L6.82939 10.7885L6.82533 10.7889L6.84696 11.0206ZM6.01641 11.0971L5.79556 11.0368L5.71162 11.3558L6.03488 11.3291L6.01641 11.0971ZM6.78296 9.12503L6.7275 8.89927L6.63362 8.92321L6.58515 9.00838L6.78296 9.12503ZM30.1814 6.13686C29.8516 5.76512 29.5006 5.41464 29.1303 5.087L28.8303 5.43826C29.1867 5.75363 29.5247 6.09102 29.842 6.44876L30.1814 6.13686ZM31.6912 5.47516L29.9391 6.07216L30.0843 6.51352L31.8363 5.91653L31.6912 5.47516ZM24.9603 1.68064C25.9803 2.01929 27.3144 2.61666 28.5583 3.3546C29.8067 4.09525 30.94 4.96339 31.5807 5.83525L31.9469 5.55646C31.2508 4.60924 30.0541 3.70324 28.7885 2.95248C27.5185 2.199 26.1548 1.58768 25.1022 1.23815L24.9603 1.68064ZM18.4462 1.00179C20.6804 0.876393 22.988 0.75181 24.9351 1.67053L25.1274 1.24826C23.0582 0.271872 20.6289 0.413145 18.4211 0.537068L18.4462 1.00179ZM18.3415 1.00767L18.4462 1.00179L18.4211 0.537064L18.3163 0.542944L18.3415 1.00767ZM12.0918 2.97086C13.9796 1.80649 16.1276 1.13167 18.3414 1.00767L18.3163 0.542944C16.0278 0.671112 13.8071 1.36867 11.8548 2.5728L12.0918 2.97086ZM7.52941 7.67567C8.63611 5.75232 10.2041 4.13524 12.0918 2.97086L11.8548 2.5728C9.90261 3.77694 8.28026 5.44981 7.13486 7.44047L7.52941 7.67567ZM8.20881 7.0605C7.90752 7.14452 7.56471 7.24003 7.26376 7.33599L7.40045 7.78015C7.69203 7.68716 8.02642 7.59388 8.32957 7.5094L8.20881 7.0605ZM8.207 7.06102L8.20688 7.06107L8.33149 7.50883L8.3316 7.50878L8.207 7.06102ZM8.22451 7.05673L8.31415 7.51312L8.22451 7.05673ZM8.22451 7.05673L8.31415 7.51312L8.22451 7.05673ZM8.22451 7.05673L8.31415 7.51312L8.31421 7.51306L8.22451 7.05673ZM8.88944 7.00409C8.88944 6.92178 8.93203 6.87052 8.94486 6.85617C8.96095 6.83822 8.97519 6.82908 8.97745 6.82759C8.98315 6.82388 8.98106 6.82593 8.9635 6.83336C8.9309 6.8472 8.87724 6.86606 8.80172 6.88978C8.65244 6.93676 8.44452 6.99477 8.20897 7.06044L8.32974 7.50935C8.56234 7.44453 8.77868 7.38418 8.93678 7.33445C9.0149 7.30987 9.08562 7.28581 9.13905 7.26318C9.16447 7.25237 9.19582 7.23797 9.22412 7.21945C9.23773 7.21059 9.2606 7.19448 9.28252 7.17001C9.3011 7.14926 9.34669 7.09199 9.34669 7.00409H8.88944ZM9.98756 6.24906C9.80404 6.37863 9.63069 6.501 9.46937 6.598C9.305 6.69693 9.17384 6.75643 9.07539 6.77552L9.16074 7.23277C9.3398 7.19808 9.52682 7.10411 9.70203 6.99872C9.88041 6.89138 10.0682 6.75866 10.2482 6.63143L9.98756 6.24906ZM11.2066 5.61076C11.0019 5.63154 10.7887 5.73174 10.5934 5.84565C10.3937 5.96202 10.1846 6.10988 9.98756 6.24906L10.2482 6.63143C10.4494 6.4894 10.6414 6.354 10.8205 6.24952C11.0039 6.14258 11.1474 6.08451 11.2519 6.07388L11.2066 5.61076ZM20.9868 2.00432C17.2815 2.00432 13.337 3.01662 11.0566 5.68975L11.4019 5.99494C13.5541 3.47201 17.3343 2.46976 20.9868 2.46976V2.00432ZM24.5728 2.53681C23.4129 2.18338 22.2045 2.00311 20.9866 2.00432L20.987 2.46976C22.1603 2.46859 23.3244 2.64227 24.4416 2.98269L24.5728 2.53681ZM24.5215 2.52749C23.9138 2.48866 23.1416 2.63899 22.4085 2.84019C21.6697 3.043 20.9468 3.30444 20.4292 3.50328L20.5907 3.93873C21.1022 3.74224 21.8093 3.48673 22.5276 3.28957C23.2517 3.09082 23.9636 2.95819 24.4929 2.99201L24.5215 2.52749ZM20.5706 3.94538C21.4144 3.70902 22.2986 3.65453 23.165 3.78554L23.2322 3.32516C22.3029 3.18464 21.3545 3.24306 20.4492 3.49663L20.5706 3.94538ZM23.165 3.78554C24.0314 3.91655 24.86 4.23006 25.5963 4.70522L25.8412 4.31211C25.0507 3.802 24.1615 3.46568 23.2322 3.32516L23.165 3.78554ZM25.5957 4.70481C25.8964 4.90019 26.1801 5.12059 26.4437 5.36376L26.7508 5.01885C26.4681 4.75812 26.164 4.52184 25.8417 4.31248L25.5957 4.70481ZM26.7442 5.01303C26.7187 4.99122 26.6931 4.96913 26.6671 4.94665L26.3713 5.30159C26.3971 5.32389 26.4237 5.34682 26.4503 5.36953L26.7442 5.01303ZM26.6671 4.94665C26.6092 4.89665 26.5489 4.84453 26.4905 4.79699L26.2049 5.16047C26.2572 5.20305 26.3123 5.25063 26.3713 5.30159L26.6671 4.94665ZM26.1857 5.14294C26.5241 5.48897 26.8203 5.87394 27.0682 6.2897L27.4591 6.04827C27.1923 5.60078 26.8736 5.18668 26.5097 4.81456L26.1857 5.14294ZM27.0681 6.28958C27.6394 7.24923 27.9418 8.34497 27.944 9.46174L28.4012 9.46082C28.3989 8.259 28.0734 7.08016 27.4592 6.04838L27.0681 6.28958ZM27.944 9.46174C27.9461 10.5785 27.6478 11.6754 27.0801 12.6372L27.4722 12.8769C28.0825 11.8427 28.4035 10.6628 28.4012 9.46082L27.944 9.46174ZM27.0802 12.6372C26.5125 13.599 25.6964 14.3902 24.7172 14.9273L24.9341 15.337C25.985 14.7607 26.8618 13.9109 27.4722 12.8769L27.0802 12.6372ZM24.7172 14.9273C23.7381 15.4644 22.6322 15.7274 21.5161 15.6882L21.5004 16.1534C22.6972 16.1954 23.8833 15.9134 24.9341 15.337L24.7172 14.9273ZM21.7357 15.944C21.7647 15.6483 21.7024 15.351 21.5576 15.0924L21.1604 15.3228C21.2584 15.4979 21.3003 15.6985 21.2808 15.8978L21.7357 15.944ZM21.5576 15.0924C21.4129 14.8338 21.1928 14.6266 20.9277 14.498L20.7311 14.9182C20.9127 15.0063 21.0624 15.1477 21.1604 15.3228L21.5576 15.0924ZM20.9274 14.4979C20.4398 14.2625 20.0009 14.0755 19.5402 13.8849L19.3681 14.3161C19.8259 14.5055 20.2556 14.6886 20.7314 14.9184L20.9274 14.4979ZM19.5402 13.8849C19.0779 13.6936 18.6233 13.5175 18.164 13.3489L18.009 13.7868C18.4631 13.9534 18.912 14.1273 19.3681 14.3161L19.5402 13.8849ZM18.164 13.3489C17.7048 13.1805 17.1818 12.9991 16.6828 12.8451L16.5501 13.2905C17.0394 13.4416 17.5548 13.6202 18.009 13.7868L18.164 13.3489ZM16.6909 12.8478C16.6169 12.8218 16.5423 12.7987 16.4718 12.7768L16.3385 13.222C16.4103 13.2443 16.477 13.2651 16.542 13.2878L16.6909 12.8478ZM16.4718 12.7768C16.4407 12.7672 16.4103 12.7578 16.3801 12.7481L16.2438 13.1924C16.2758 13.2026 16.3076 13.2125 16.3385 13.222L16.4718 12.7768ZM16.3798 12.7481C16.0463 12.6426 15.7075 12.5395 15.376 12.4438L15.2513 12.8916C15.5786 12.986 15.9137 13.088 16.2441 13.1925L16.3798 12.7481ZM15.3766 12.444C13.4914 11.8946 11.5618 11.5122 9.60985 11.3011L9.56156 11.7639C11.4872 11.9721 13.391 12.3495 15.2507 12.8915L15.3766 12.444ZM9.61041 11.3012C7.67186 11.0863 6.35859 10.9898 4.40957 11.3034L4.48094 11.7631C6.37 11.4592 7.63577 11.5505 9.56093 11.7639L9.61041 11.3012ZM4.40621 11.3039C3.58767 11.4484 3.03925 11.6538 2.35367 11.9101L2.51133 12.347C3.19561 12.0911 3.71014 11.8991 4.4843 11.7625L4.40621 11.3039ZM2.35367 11.9101C2.22186 11.9594 2.08515 12.0105 1.93991 12.0637L2.09471 12.5016C2.24158 12.4479 2.37968 12.3962 2.51133 12.347L2.35367 11.9101ZM1.93453 12.0658C1.78751 12.1239 1.661 12.1727 1.54791 12.2163L1.70998 12.6515C1.82304 12.6079 1.95113 12.5584 2.10009 12.4996L1.93453 12.0658ZM1.54791 12.2163C0.969177 12.4396 0.744995 12.527 0.0585938 12.9761L0.305852 13.3677C0.958399 12.9406 1.15207 12.8668 1.70998 12.6515L1.54791 12.2163ZM0.284102 13.3802C0.501914 13.2699 0.618611 13.208 0.684788 13.171C0.718153 13.1525 0.740148 13.1394 0.756614 13.129C0.765019 13.1237 0.771351 13.1195 0.776174 13.1162C0.782111 13.1122 0.781218 13.1128 0.78119 13.1129L0.538143 12.7187C0.523271 12.7281 0.51074 12.7455 0.0803426 12.9636L0.284102 13.3802ZM0.78119 13.1129C0.773424 13.1178 0.76555 13.1199 0.829033 13.0924C0.881987 13.0694 0.989709 13.0232 1.17715 12.9418L0.997668 12.5138C0.805128 12.5974 0.710076 12.6381 0.649711 12.6642C0.599869 12.6859 0.568119 12.6995 0.538148 12.7187L0.78119 13.1129ZM1.14264 12.9536C2.0374 12.7268 2.95047 12.5801 3.87116 12.5148L3.83941 12.0505C2.8922 12.1176 1.95279 12.2687 1.03218 12.5019L1.14264 12.9536ZM3.86715 12.5151C4.54886 12.479 5.23121 12.4772 5.91163 12.5094L5.93293 12.0444C5.23749 12.0115 4.54011 12.0134 3.84342 12.0503L3.86715 12.5151ZM5.782 12.6019C5.84566 12.5607 5.91796 12.5255 5.99879 12.4962L5.84577 12.0576C5.73681 12.097 5.63282 12.1469 5.53656 12.2092L5.782 12.6019ZM5.75127 14.3717C5.74777 13.7345 5.79217 13.0693 5.88531 12.4402L5.4332 12.3709C5.33631 13.025 5.29039 13.7144 5.29403 14.3743L5.75127 14.3717ZM8.28574 22.2061C6.63842 19.9272 5.75161 17.1859 5.75127 14.373H5.29403C5.2944 17.2858 6.21269 20.1236 7.91746 22.482L8.28574 22.2061ZM14.9267 27.0639C12.2571 26.1854 9.93311 24.4851 8.28574 22.2061L7.91746 22.482C9.62211 24.8403 12.0261 26.5986 14.7861 27.5067L14.9267 27.0639ZM23.1515 27.0969C20.4749 27.9539 17.5964 27.9423 14.9267 27.0639L14.7861 27.5067C17.546 28.4149 20.5215 28.4268 23.2887 27.5409L23.1515 27.0969ZM31.5196 21.8169C30.6989 22.9332 29.289 24.0372 27.7303 24.9748C26.1754 25.9102 24.4943 26.6669 23.1515 27.0969L23.2887 27.5409C24.6677 27.0993 26.3807 26.3273 27.9629 25.3755C29.5414 24.426 31.0118 23.2845 31.8857 22.0957L31.5196 21.8169ZM26.8374 25.7204C28.4177 25.0103 30.7141 23.4173 31.8723 22.1123L31.533 21.8003C30.4248 23.0489 28.1845 24.6064 26.6527 25.2946L26.8374 25.7204ZM20.9866 26.7206C22.7032 26.7222 25.2378 26.439 26.8374 25.7204L26.6527 25.2946C25.1401 25.9742 22.6811 26.2567 20.987 26.2552L20.9866 26.7206ZM12.2759 23.1053C14.5868 25.4205 17.7202 26.7206 20.9868 26.7206V26.2552C17.8392 26.2552 14.8212 25.0024 12.5966 22.7736L12.2759 23.1053ZM8.66588 14.373C8.66588 17.649 9.96491 20.79 12.2759 23.1053L12.5966 22.7736C10.3722 20.545 9.12312 17.5231 9.12312 14.373H8.66588ZM8.80404 13.0172C8.74388 13.4541 8.66475 14.0239 8.66588 14.3738L9.12312 14.3722C9.1221 14.064 9.19446 13.5348 9.25688 13.0819L8.80404 13.0172ZM8.8037 13.0199V13.02L9.25722 13.0791V13.0791L8.8037 13.0199ZM8.85425 12.6429C8.84092 12.7499 8.8233 12.8773 8.80404 13.0171L9.25688 13.0818C9.27603 12.9429 9.29404 12.8121 9.30783 12.7015L8.85425 12.6429ZM9.03602 12.9004C9.14165 12.922 9.24716 12.9444 9.35251 12.9677L9.44949 12.5128C9.34183 12.4891 9.234 12.4661 9.12606 12.444L9.03602 12.9004ZM9.35358 12.9679C11.1561 13.357 12.9207 13.9053 14.6265 14.6063L14.7977 14.1748C13.0671 13.4635 11.277 12.9073 9.44847 12.5126L9.35358 12.9679ZM14.6264 14.6063C15.4804 14.9578 16.3202 15.3366 17.1459 15.7428L17.3449 15.3237C16.51 14.9131 15.661 14.5302 14.7978 14.1748L14.6264 14.6063ZM17.1454 15.7425C17.5574 15.9464 17.9653 16.157 18.369 16.3742L18.5826 15.9627C18.1743 15.7431 17.7619 15.5302 17.3454 15.324L17.1454 15.7425ZM18.3671 16.3731C18.412 16.3978 18.4572 16.4225 18.5022 16.4472L18.7186 16.0371C18.6735 16.0125 18.6289 15.9881 18.5846 15.9637L18.3671 16.3731ZM18.5022 16.4472C18.6872 16.5484 18.8691 16.648 19.0425 16.7533L19.2769 16.3537C19.0932 16.242 18.9021 16.1375 18.7186 16.0371L18.5022 16.4472ZM19.1597 16.7862H19.1796V16.3207H19.1597V16.7862ZM19.058 16.7506C19.2062 16.8453 19.3625 16.9385 19.5222 17.0144L19.7156 16.5927C19.5807 16.5286 19.4426 16.4468 19.3012 16.3564L19.058 16.7506ZM19.4935 16.9981L19.516 17.0131L19.7669 16.624L19.7444 16.6089L19.4935 16.9981ZM19.5335 17.0238L19.6484 17.0862L19.8641 16.6758L19.7492 16.6134L19.5335 17.0238ZM19.6695 17.0964L19.7294 17.1214L19.9028 16.6907L19.8429 16.6657L19.6695 17.0964ZM19.7186 17.1165C21.4129 17.9303 23.3514 18.0725 25.1458 17.5147L25.0122 17.0695C23.3263 17.5936 21.5051 17.4599 19.9137 16.6956L19.7186 17.1165ZM25.1458 17.5147C26.9402 16.9568 28.4589 15.7399 29.3968 14.1065L29.002 13.8717C28.1229 15.4028 26.698 16.5455 25.0122 17.0695L25.1458 17.5147ZM29.3968 14.1065C30.3347 12.4731 30.622 10.5443 30.2006 8.70716L29.7553 8.81302C30.15 10.5338 29.8811 12.3406 29.002 13.8717L29.3968 14.1065ZM30.2006 8.70716C30.1449 8.46454 30.0928 8.21734 30.0399 7.9666L29.5929 8.06427C29.6456 8.31433 29.6986 8.56565 29.7553 8.81302L30.2006 8.70716ZM30.0399 7.9666C29.839 7.01375 29.6276 6.00323 29.182 5.15308L28.7786 5.37217C29.1884 6.15412 29.3888 7.0968 29.5929 8.06427L30.0399 7.9666ZM10.6636 7.14012C10.47 7.106 10.2365 7.06325 10.0153 7.08394L10.0572 7.54741C10.2067 7.53341 10.3773 7.56199 10.5855 7.59874L10.6636 7.14012ZM11.1292 7.19379C10.9948 7.19768 10.8442 7.17201 10.6636 7.14012L10.5855 7.59874C10.7553 7.62869 10.9533 7.66453 11.1421 7.65904L11.1292 7.19379ZM10.9239 7.73969C10.9973 7.731 11.116 7.71694 11.2602 7.6216L11.0111 7.23128C10.9808 7.25129 10.9579 7.26038 10.9402 7.26552C10.9209 7.27112 10.903 7.27358 10.8712 7.27735L10.9239 7.73969ZM10.9102 7.73849C10.9168 7.7262 10.9195 7.72414 10.917 7.72688C10.9156 7.72831 10.9132 7.73066 10.9097 7.73334C10.9062 7.73603 10.9023 7.73849 10.8983 7.74049C10.8904 7.74454 10.8857 7.74517 10.8893 7.74443C10.8913 7.74397 10.8948 7.7434 10.9007 7.74254C10.907 7.74163 10.9139 7.74089 10.9239 7.73969L10.8712 7.27735C10.841 7.2809 10.7659 7.2873 10.6928 7.32468C10.6097 7.36726 10.5518 7.43522 10.5087 7.51586L10.9102 7.73849ZM8.90498 8.33822C9.52812 8.05627 10.1184 7.89338 10.7221 7.85954L10.6969 7.39481C10.0265 7.43242 9.38154 7.61331 8.71926 7.91293L8.90498 8.33822ZM7.59516 8.73626C8.02619 8.57862 8.43909 8.42824 8.85154 8.3548L8.77275 7.89635C8.31471 7.97786 7.86436 8.14326 7.44056 8.29821L7.59516 8.73626ZM7.5733 8.74306H7.57335L7.46242 8.29147L7.5733 8.74306ZM7.5733 8.74306L7.46242 8.29147V8.29153L7.5733 8.74306ZM7.60787 8.73117H7.60792L7.42779 8.30336H7.42774L7.60787 8.73117ZM6.88238 8.98306C7.12153 8.90955 7.36103 8.82193 7.5951 8.73626L7.4405 8.29827C7.20434 8.38463 6.97608 8.46802 6.7502 8.53741L6.88238 8.98306ZM6.61933 8.63018C6.61323 8.64755 6.60735 8.66418 6.60148 8.68064L7.0311 8.83982C7.03743 8.82211 7.0437 8.80444 7.04974 8.78724L6.61933 8.63018ZM6.97597 7.93745C6.76031 8.23008 6.68423 8.44585 6.61933 8.63018L7.04974 8.78724C7.10933 8.61806 7.16706 8.45379 7.34171 8.21671L6.97597 7.93745ZM7.25071 7.78941C7.22919 7.79547 7.18751 7.80702 7.14791 7.82148C7.12831 7.82868 7.1034 7.83862 7.079 7.85154C7.062 7.86051 7.01336 7.88669 6.97597 7.93745L7.34171 8.21671C7.33307 8.22843 7.32476 8.23711 7.31855 8.243C7.31222 8.24895 7.30675 8.25323 7.30285 8.25609C7.29551 8.26152 7.29031 8.26426 7.28963 8.26461C7.2885 8.26518 7.28907 8.26489 7.29166 8.26375C7.29421 8.26266 7.29776 8.26123 7.3024 8.25958C7.31194 8.25609 7.3233 8.25237 7.33589 8.2486C7.34843 8.24477 7.36046 8.24146 7.37198 8.2382L7.25071 7.78941ZM7.25873 7.78718L7.2506 7.78947L7.37215 8.23814L7.38029 8.23591L7.25873 7.78718ZM7.98885 7.56587C7.74411 7.64264 7.50241 7.71848 7.25845 7.7873L7.38057 8.2358C7.63187 8.16487 7.87984 8.08708 8.12357 8.01061L7.98885 7.56587ZM10.0148 7.08399C9.30489 7.15207 8.63611 7.36274 7.98885 7.56587L8.12357 8.01061C8.77817 7.80519 9.40227 7.61023 10.0577 7.54736L10.0148 7.08399ZM9.73366 10.9486C9.97429 10.1666 10.2726 9.48163 10.6471 8.74026L10.2405 8.52735C9.85816 9.28421 9.54811 9.9946 9.29732 10.8095L9.73366 10.9486ZM6.86876 11.2523C7.76003 11.166 8.68203 11.0772 9.50614 11.1115L9.52484 10.6465C8.66385 10.6106 7.70937 10.7033 6.8255 10.7888L6.86876 11.2523ZM6.86713 11.2524H6.86718L6.82702 10.7887H6.82696L6.86713 11.2524ZM6.86972 11.2521H6.86978L6.82425 10.789L6.86972 11.2521ZM6.86447 11.2526H6.86453L6.82945 10.7886H6.82939L6.86447 11.2526ZM6.03488 11.3291C6.30522 11.3067 6.58532 11.2796 6.86859 11.2523L6.82533 10.7889C6.54138 10.8164 6.26455 10.8431 5.99794 10.8651L6.03488 11.3291ZM6.58515 9.00838C6.22298 9.64458 5.96795 10.3823 5.79556 11.0368L6.23721 11.1574C6.40384 10.5246 6.64616 9.82959 6.98077 9.24174L6.58515 9.00838ZM10.4548 8.40138C9.02874 8.33171 7.45202 8.71482 6.7275 8.89927L6.83843 9.3508C7.5655 9.16573 9.08217 8.80033 10.4329 8.86629L10.4548 8.40138Z" fill="url(#paint1_linear)" fill-opacity="0.2"/>
<path fill-rule="evenodd" clip-rule="evenodd" d="M27.6893 2.77534C29.2449 3.47446 30.6349 4.49619 31.7674 5.77306V5.76808C30.4307 3.94901 28.6625 2.49241 26.6227 1.52995C24.5829 0.567476 22.3359 0.129484 20.0847 0.255568C17.8335 0.381656 15.6492 1.06784 13.7291 2.25209C11.8092 3.43634 10.214 5.08134 9.08791 7.03832C9.87881 6.73556 10.697 6.51025 11.5313 6.36571C12.1128 6.25317 12.8117 6.17566 13.4032 6.11565C15.6195 3.51764 19.0638 1.7173 22.7426 1.7173C24.4476 1.71561 26.1336 2.07623 27.6893 2.77534ZM11.8069 6.98676C12.1539 6.9543 12.5008 6.93178 12.8478 6.92184C12.6279 7.06718 12.4851 7.28523 12.3846 7.47305C11.7475 7.50877 11.1128 7.57724 10.4827 7.67807C9.80809 7.79826 9.14129 7.95939 8.48612 8.16063C8.55475 7.96882 8.69754 7.67807 8.78199 7.58947C8.85107 7.56501 8.92179 7.54226 8.98742 7.52117L8.98754 7.52112L8.98765 7.52106L9.03165 7.50694C9.93936 7.25088 10.8682 7.07678 11.8069 6.98676ZM12.0357 8.16366C11.6479 8.96436 11.3266 9.79564 11.0748 10.6491C9.93552 10.5995 8.79419 10.6238 7.65806 10.7217C7.83175 10.0336 8.0408 9.35508 8.28453 8.68875C9.0282 8.49122 10.6131 8.09113 12.0357 8.16366ZM22.7426 25.9468C19.5355 25.9468 16.4598 24.6704 14.1921 22.3985C11.9243 20.1265 10.6503 17.0451 10.6503 13.832C10.6488 13.3841 10.6747 12.9365 10.7277 12.4917C9.65479 12.1474 8.54114 11.9465 7.41574 11.8941C7.32073 12.5356 7.27481 13.1835 7.27842 13.832C7.27876 16.6948 8.18133 19.4844 9.85734 21.803C11.5334 24.1217 13.8974 25.851 16.6122 26.7443C19.327 27.6376 22.254 27.6493 24.9758 26.7779C27.6977 25.9064 30.0754 24.1961 31.77 21.8911C30.6368 23.1678 29.2464 24.1895 27.6904 24.8886C26.1342 25.5878 24.4479 25.9484 22.7426 25.9468ZM25.5909 2.74001C26.7184 2.85732 27.8024 3.2394 28.7549 3.85522C30.2617 4.88138 31.3257 6.44018 31.7338 8.21916C32.1418 9.99814 31.8638 11.8659 30.9552 13.4482C30.0467 15.0304 28.5749 16.2102 26.8348 16.7512C25.0947 17.2922 23.2148 17.1542 21.5719 16.3651L21.512 16.3401L21.3972 16.2776L21.3747 16.2626C21.2275 16.1926 21.0802 16.1051 20.9354 16.0125H20.9155C20.737 15.9041 20.5505 15.802 20.3663 15.7013C20.3212 15.6766 20.2763 15.6521 20.2316 15.6275C19.8256 15.4091 19.4155 15.1974 19.0012 14.9923C18.1709 14.584 17.3265 14.203 16.468 13.8497C14.7497 13.1435 12.9724 12.5912 11.1568 12.1993C9.33729 11.7972 7.47183 11.6433 5.61112 11.7417C4.67717 11.8079 3.75091 11.9569 2.84322 12.1868C1.93104 12.4361 1.04636 12.777 0.202637 13.2045C1.00531 12.6793 1.8591 12.2369 2.75088 11.8843C3.65636 11.5527 4.58924 11.3016 5.53874 11.1342C7.45776 10.8254 9.40964 10.7775 11.3415 10.9916C13.2804 11.2013 15.197 11.5811 17.0695 12.1268C17.3989 12.2218 17.7358 12.3244 18.0678 12.4294C18.0989 12.4393 18.13 12.4489 18.161 12.4585C18.232 12.4806 18.3028 12.5025 18.3723 12.5269C18.8665 12.6794 19.3856 12.8595 19.8424 13.027C20.299 13.1945 20.7508 13.3695 21.21 13.5596C21.6692 13.7496 22.1035 13.9346 22.5852 14.1672C22.8086 14.2755 22.9935 14.4498 23.1149 14.6667C23.2362 14.8835 23.2884 15.1325 23.2641 15.3799C24.4205 15.4205 25.5665 15.148 26.5815 14.5913C27.5965 14.0346 28.443 13.2141 29.032 12.2161C29.6209 11.2182 29.9306 10.0797 29.9284 8.92035C29.9262 7.76106 29.6122 6.62377 29.0195 5.62807C28.7622 5.19645 28.4547 4.79695 28.1035 4.43785C28.1588 4.48291 28.2166 4.53276 28.2751 4.58326C28.301 4.60565 28.327 4.62812 28.3531 4.65038C28.08 4.39847 27.786 4.17011 27.4746 3.96776C26.7112 3.47511 25.8523 3.15021 24.9544 3.01444C24.0566 2.87867 23.1403 2.93513 22.2657 3.18009C23.3242 2.77348 24.4634 2.6227 25.5909 2.74001Z" fill="black"/>
<path fill-rule="evenodd" clip-rule="evenodd" d="M27.6893 2.77534C29.2449 3.47446 30.6349 4.49619 31.7674 5.77306V5.76808C30.4307 3.94901 28.6625 2.49241 26.6227 1.52995C24.5829 0.567476 22.3359 0.129484 20.0847 0.255568C17.8335 0.381656 15.6492 1.06784 13.7291 2.25209C11.8092 3.43634 10.214 5.08134 9.08791 7.03832C9.87881 6.73556 10.697 6.51025 11.5313 6.36571C12.1128 6.25317 12.8117 6.17566 13.4032 6.11565C15.6195 3.51764 19.0638 1.7173 22.7426 1.7173C24.4476 1.71561 26.1336 2.07623 27.6893 2.77534ZM11.8069 6.98676C12.1539 6.9543 12.5008 6.93178 12.8478 6.92184C12.6279 7.06718 12.4851 7.28523 12.3846 7.47305C11.7475 7.50877 11.1128 7.57724 10.4827 7.67807C9.80809 7.79826 9.14129 7.95939 8.48612 8.16063C8.55475 7.96882 8.69754 7.67807 8.78199 7.58947C8.85107 7.56501 8.92179 7.54226 8.98742 7.52117L8.98754 7.52112L8.98765 7.52106L9.03165 7.50694C9.93936 7.25088 10.8682 7.07678 11.8069 6.98676ZM12.0357 8.16366C11.6479 8.96436 11.3266 9.79564 11.0748 10.6491C9.93552 10.5995 8.79419 10.6238 7.65806 10.7217C7.83175 10.0336 8.0408 9.35508 8.28453 8.68875C9.0282 8.49122 10.6131 8.09113 12.0357 8.16366ZM22.7426 25.9468C19.5355 25.9468 16.4598 24.6704 14.1921 22.3985C11.9243 20.1265 10.6503 17.0451 10.6503 13.832C10.6488 13.3841 10.6747 12.9365 10.7277 12.4917C9.65479 12.1474 8.54114 11.9465 7.41574 11.8941C7.32073 12.5356 7.27481 13.1835 7.27842 13.832C7.27876 16.6948 8.18133 19.4844 9.85734 21.803C11.5334 24.1217 13.8974 25.851 16.6122 26.7443C19.327 27.6376 22.254 27.6493 24.9758 26.7779C27.6977 25.9064 30.0754 24.1961 31.77 21.8911C30.6368 23.1678 29.2464 24.1895 27.6904 24.8886C26.1342 25.5878 24.4479 25.9484 22.7426 25.9468ZM25.5909 2.74001C26.7184 2.85732 27.8024 3.2394 28.7549 3.85522C30.2617 4.88138 31.3257 6.44018 31.7338 8.21916C32.1418 9.99814 31.8638 11.8659 30.9552 13.4482C30.0467 15.0304 28.5749 16.2102 26.8348 16.7512C25.0947 17.2922 23.2148 17.1542 21.5719 16.3651L21.512 16.3401L21.3972 16.2776L21.3747 16.2626C21.2275 16.1926 21.0802 16.1051 20.9354 16.0125H20.9155C20.737 15.9041 20.5505 15.802 20.3663 15.7013C20.3212 15.6766 20.2763 15.6521 20.2316 15.6275C19.8256 15.4091 19.4155 15.1974 19.0012 14.9923C18.1709 14.584 17.3265 14.203 16.468 13.8497C14.7497 13.1435 12.9724 12.5912 11.1568 12.1993C9.33729 11.7972 7.47183 11.6433 5.61112 11.7417C4.67717 11.8079 3.75091 11.9569 2.84322 12.1868C1.93104 12.4361 1.04636 12.777 0.202637 13.2045C1.00531 12.6793 1.8591 12.2369 2.75088 11.8843C3.65636 11.5527 4.58924 11.3016 5.53874 11.1342C7.45776 10.8254 9.40964 10.7775 11.3415 10.9916C13.2804 11.2013 15.197 11.5811 17.0695 12.1268C17.3989 12.2218 17.7358 12.3244 18.0678 12.4294C18.0989 12.4393 18.13 12.4489 18.161 12.4585C18.232 12.4806 18.3028 12.5025 18.3723 12.5269C18.8665 12.6794 19.3856 12.8595 19.8424 13.027C20.299 13.1945 20.7508 13.3695 21.21 13.5596C21.6692 13.7496 22.1035 13.9346 22.5852 14.1672C22.8086 14.2755 22.9935 14.4498 23.1149 14.6667C23.2362 14.8835 23.2884 15.1325 23.2641 15.3799C24.4205 15.4205 25.5665 15.148 26.5815 14.5913C27.5965 14.0346 28.443 13.2141 29.032 12.2161C29.6209 11.2182 29.9306 10.0797 29.9284 8.92035C29.9262 7.76106 29.6122 6.62377 29.0195 5.62807C28.7622 5.19645 28.4547 4.79695 28.1035 4.43785C28.1588 4.48291 28.2166 4.53276 28.2751 4.58326C28.301 4.60565 28.327 4.62812 28.3531 4.65038C28.08 4.39847 27.786 4.17011 27.4746 3.96776C26.7112 3.47511 25.8523 3.15021 24.9544 3.01444C24.0566 2.87867 23.1403 2.93513 22.2657 3.18009C23.3242 2.77348 24.4634 2.6227 25.5909 2.74001Z" fill="url(#paint2_linear)"/>
<path fill-rule="evenodd" clip-rule="evenodd" d="M27.6893 2.77534C29.2449 3.47446 30.6349 4.49619 31.7674 5.77306V5.76808C30.4307 3.94901 28.6625 2.49241 26.6227 1.52995C24.5829 0.567476 22.3359 0.129484 20.0847 0.255568C17.8335 0.381656 15.6492 1.06784 13.7291 2.25209C11.8092 3.43634 10.214 5.08134 9.08791 7.03832C9.87881 6.73556 10.697 6.51025 11.5313 6.36571C12.1128 6.25317 12.8117 6.17566 13.4032 6.11565C15.6195 3.51764 19.0638 1.7173 22.7426 1.7173C24.4476 1.71561 26.1336 2.07623 27.6893 2.77534ZM11.8069 6.98676C12.1539 6.9543 12.5008 6.93178 12.8478 6.92184C12.6279 7.06718 12.4851 7.28523 12.3846 7.47305C11.7475 7.50877 11.1128 7.57724 10.4827 7.67807C9.80809 7.79826 9.14129 7.95939 8.48612 8.16063C8.55475 7.96882 8.69754 7.67807 8.78199 7.58947C8.85107 7.56501 8.92179 7.54226 8.98742 7.52117L8.98754 7.52112L8.98765 7.52106L9.03165 7.50694C9.93936 7.25088 10.8682 7.07678 11.8069 6.98676ZM12.0357 8.16366C11.6479 8.96436 11.3266 9.79564 11.0748 10.6491C9.93552 10.5995 8.79419 10.6238 7.65806 10.7217C7.83175 10.0336 8.0408 9.35508 8.28453 8.68875C9.0282 8.49122 10.6131 8.09113 12.0357 8.16366ZM22.7426 25.9468C19.5355 25.9468 16.4598 24.6704 14.1921 22.3985C11.9243 20.1265 10.6503 17.0451 10.6503 13.832C10.6488 13.3841 10.6747 12.9365 10.7277 12.4917C9.65479 12.1474 8.54114 11.9465 7.41574 11.8941C7.32073 12.5356 7.27481 13.1835 7.27842 13.832C7.27876 16.6948 8.18133 19.4844 9.85734 21.803C11.5334 24.1217 13.8974 25.851 16.6122 26.7443C19.327 27.6376 22.254 27.6493 24.9758 26.7779C27.6977 25.9064 30.0754 24.1961 31.77 21.8911C30.6368 23.1678 29.2464 24.1895 27.6904 24.8886C26.1342 25.5878 24.4479 25.9484 22.7426 25.9468ZM25.5909 2.74001C26.7184 2.85732 27.8024 3.2394 28.7549 3.85522C30.2617 4.88138 31.3257 6.44018 31.7338 8.21916C32.1418 9.99814 31.8638 11.8659 30.9552 13.4482C30.0467 15.0304 28.5749 16.2102 26.8348 16.7512C25.0947 17.2922 23.2148 17.1542 21.5719 16.3651L21.512 16.3401L21.3972 16.2776L21.3747 16.2626C21.2275 16.1926 21.0802 16.1051 20.9354 16.0125H20.9155C20.737 15.9041 20.5505 15.802 20.3663 15.7013C20.3212 15.6766 20.2763 15.6521 20.2316 15.6275C19.8256 15.4091 19.4155 15.1974 19.0012 14.9923C18.1709 14.584 17.3265 14.203 16.468 13.8497C14.7497 13.1435 12.9724 12.5912 11.1568 12.1993C9.33729 11.7972 7.47183 11.6433 5.61112 11.7417C4.67717 11.8079 3.75091 11.9569 2.84322 12.1868C1.93104 12.4361 1.04636 12.777 0.202637 13.2045C1.00531 12.6793 1.8591 12.2369 2.75088 11.8843C3.65636 11.5527 4.58924 11.3016 5.53874 11.1342C7.45776 10.8254 9.40964 10.7775 11.3415 10.9916C13.2804 11.2013 15.197 11.5811 17.0695 12.1268C17.3989 12.2218 17.7358 12.3244 18.0678 12.4294C18.0989 12.4393 18.13 12.4489 18.161 12.4585C18.232 12.4806 18.3028 12.5025 18.3723 12.5269C18.8665 12.6794 19.3856 12.8595 19.8424 13.027C20.299 13.1945 20.7508 13.3695 21.21 13.5596C21.6692 13.7496 22.1035 13.9346 22.5852 14.1672C22.8086 14.2755 22.9935 14.4498 23.1149 14.6667C23.2362 14.8835 23.2884 15.1325 23.2641 15.3799C24.4205 15.4205 25.5665 15.148 26.5815 14.5913C27.5965 14.0346 28.443 13.2141 29.032 12.2161C29.6209 11.2182 29.9306 10.0797 29.9284 8.92035C29.9262 7.76106 29.6122 6.62377 29.0195 5.62807C28.7622 5.19645 28.4547 4.79695 28.1035 4.43785C28.1588 4.48291 28.2166 4.53276 28.2751 4.58326C28.301 4.60565 28.327 4.62812 28.3531 4.65038C28.08 4.39847 27.786 4.17011 27.4746 3.96776C26.7112 3.47511 25.8523 3.15021 24.9544 3.01444C24.0566 2.87867 23.1403 2.93513 22.2657 3.18009C23.3242 2.77348 24.4634 2.6227 25.5909 2.74001Z" fill="url(#paint3_linear)"/>
<defs>
<linearGradient id="paint0_linear" x1="15.9595" y1="0.679686" x2="15.9595" y2="27.9615" gradientUnits="userSpaceOnUse">
<stop stop-color="#52CECD"/>
<stop offset="1" stop-color="#1646BA"/>
</linearGradient>
<linearGradient id="paint1_linear" x1="15.9587" y1="0.68216" x2="15.9587" y2="27.964" gradientUnits="userSpaceOnUse">
<stop stop-color="#50C3CC"/>
<stop offset="1" stop-color="#96C1FF"/>
</linearGradient>
<linearGradient id="paint2_linear" x1="16.1172" y1="0.234376" x2="16.1172" y2="27.1747" gradientUnits="userSpaceOnUse">
<stop stop-color="#89FFFE"/>
<stop offset="1" stop-color="#3274D9"/>
</linearGradient>
<linearGradient id="paint3_linear" x1="16.06" y1="0.234375" x2="16.06" y2="27.4229" gradientUnits="userSpaceOnUse">
<stop stop-color="white"/>
<stop offset="1" stop-color="white" stop-opacity="0"/>
</linearGradient>
</defs>
</svg>
