<svg width="46" height="56" viewBox="0 0 46 56" fill="none" xmlns="http://www.w3.org/2000/svg">
<g clip-path="url(#clip0)">
<path d="M40.0274 41.4837L37.7662 41.4837C37.5761 41.4706 37.3853 41.498 37.2066 41.564C37.0279 41.6301 36.8653 41.7333 36.7298 41.8667C36.5943 42.0002 36.489 42.1609 36.4207 42.3381C36.3525 42.5153 36.323 42.7049 36.3342 42.8944C36.3178 43.1423 36.3687 43.3901 36.4814 43.6118C36.5941 43.8336 36.7645 44.0211 36.9748 44.1549C36.7708 44.2769 36.6036 44.4514 36.4908 44.66C36.3781 44.8687 36.3239 45.1037 36.3342 45.3404C36.3237 45.5468 36.3676 45.7523 36.4614 45.9365C36.5553 46.1208 36.6959 46.2774 36.8693 46.3909L36.4246 46.3909L36.4246 47.1713L40.0274 47.1713L40.0274 46.3834L38.0451 46.3834C37.9219 46.4002 37.7965 46.3896 37.6779 46.3525C37.5592 46.3154 37.4503 46.2527 37.3588 46.1688C37.2674 46.085 37.1957 45.982 37.1488 45.8674C37.102 45.7527 37.0812 45.6291 37.0879 45.5055C37.0879 44.9878 37.427 44.7252 38.0376 44.7252L40.0424 44.7252L40.0424 43.9373L38.0451 43.9373C37.922 43.9534 37.7969 43.9424 37.6786 43.905C37.5602 43.8677 37.4516 43.8049 37.3603 43.7212C37.269 43.6375 37.1973 43.5348 37.1502 43.4204C37.1031 43.3061 37.0819 43.1829 37.0879 43.0594C37.0879 42.5267 37.427 42.2716 38.0376 42.2716L40.0424 42.2716L40.0274 41.4837ZM36.4246 29.8273L36.4246 31.1103L35.3317 31.1103L35.3317 31.8982L36.4246 31.8982L36.4246 32.611L37.1406 32.611L37.1406 31.8832L38.7988 31.8832C39.6354 31.8832 40.1329 31.5605 40.1329 30.6376C40.134 30.2928 40.0374 29.9547 39.854 29.6622L39.1832 29.8873C39.3086 30.0966 39.3786 30.3341 39.3867 30.5776C39.3867 30.9528 39.1455 31.0953 38.7837 31.0953L37.1406 31.0953L37.1406 29.8198L36.4246 29.8273ZM36.3342 23.1718C36.3285 23.362 36.3746 23.5503 36.4674 23.7167C36.5603 23.8831 36.6965 24.0214 36.8618 24.1172L36.4246 24.1172L36.4246 24.89L40.0274 24.89L40.0274 24.1097L38.0074 24.1097C37.412 24.1097 37.0803 23.8546 37.0803 23.3594C37.078 23.1925 37.1088 23.0267 37.1708 22.8716L36.4171 22.6315C36.353 22.8098 36.3199 22.9975 36.3191 23.1868L36.3342 23.1718ZM36.711 33.2338C36.4472 33.6755 36.3164 34.1833 36.3342 34.6969C36.3342 35.6048 36.7713 36.1976 37.4873 36.1976C38.0752 36.1976 38.437 35.7624 38.5501 34.9596L38.6028 34.5844C38.6631 34.1567 38.7762 33.9541 38.9797 33.9541C39.2586 33.9541 39.4168 34.2392 39.4168 34.772C39.4293 35.2005 39.2966 35.6207 39.04 35.965L39.6505 36.3402C39.9693 35.8856 40.1331 35.3412 40.1178 34.787C40.1178 33.7515 39.6279 33.1512 38.942 33.1512C38.2561 33.1512 37.9773 33.624 37.8642 34.4043L37.8114 34.7795C37.7662 35.1171 37.6984 35.3872 37.4572 35.3872C37.216 35.3872 37.0351 35.1321 37.0351 34.7044C37.0397 34.3091 37.1461 33.9216 37.3441 33.5789L36.711 33.2338ZM36.3342 12.3332C36.3285 12.5234 36.3746 12.7117 36.4674 12.8781C36.5603 13.0445 36.6965 13.1828 36.8618 13.2786L36.4246 13.2786L36.4246 14.0515L40.0274 14.0515L40.0274 13.2711L38.0074 13.2711C37.412 13.2711 37.0803 13.016 37.0803 12.5208C37.078 12.3539 37.1088 12.1881 37.1708 12.0331L36.4171 11.7929C36.353 11.9712 36.3199 12.1589 36.3191 12.3482L36.3342 12.3332ZM38.2184 22.3877C38.4716 22.397 38.724 22.3535 38.9593 22.2602C39.1947 22.1668 39.4078 22.0255 39.5852 21.8454C39.7626 21.6653 39.9002 21.4503 39.9893 21.2142C40.0784 20.9782 40.1171 20.7261 40.1027 20.4743C40.1267 20.0058 39.9734 19.5453 39.6731 19.1837L39.04 19.5589C39.2466 19.8287 39.3603 20.1576 39.3641 20.4968C39.3406 20.7853 39.209 21.0544 38.9953 21.2506C38.7816 21.4468 38.5016 21.5557 38.2109 21.5557C37.9202 21.5557 37.6402 21.4468 37.4265 21.2506C37.2128 21.0544 37.0812 20.7853 37.0577 20.4968C37.0615 20.1576 37.1752 19.8287 37.3818 19.5589L36.7487 19.1837C36.4484 19.5453 36.2951 20.0058 36.3191 20.4743C36.3048 20.7261 36.3434 20.9782 36.4325 21.2142C36.5216 21.4503 36.6593 21.6653 36.8366 21.8454C37.014 22.0255 37.2272 22.1668 37.4625 22.2602C37.6979 22.3535 37.9502 22.397 38.2034 22.3877L38.2184 22.3877ZM38.2184 15.0794L36.4246 15.0794L36.4246 15.8598L36.8618 15.8598C36.6905 15.9923 36.5533 16.1635 36.4616 16.3592C36.3698 16.5548 36.3262 16.7695 36.3342 16.9853C36.3342 17.4828 36.5327 17.9599 36.8861 18.3117C37.2394 18.6635 37.7187 18.8611 38.2184 18.8611C38.7182 18.8611 39.1975 18.6635 39.5508 18.3117C39.9042 17.9599 40.1027 17.4828 40.1027 16.9853C40.1107 16.7695 40.0671 16.5548 39.9753 16.3592C39.8836 16.1635 39.7464 15.9923 39.5751 15.8598L40.0123 15.8598L40.0123 15.0794L38.2184 15.0794ZM38.2184 17.9832C38.0064 17.9708 37.8026 17.8969 37.6322 17.7706C37.4618 17.6443 37.3322 17.4712 37.2594 17.2725C37.1866 17.0738 37.1737 16.8583 37.2224 16.6524C37.2711 16.4466 37.3792 16.2594 37.5333 16.1139C37.6875 15.9684 37.8811 15.871 38.0902 15.8337C38.2993 15.7963 38.5148 15.8207 38.7102 15.9037C38.9055 15.9867 39.0723 16.1249 39.1898 16.301C39.3073 16.4772 39.3705 16.6837 39.3716 16.8952C39.3735 17.0438 39.3445 17.1911 39.2864 17.3279C39.2283 17.4648 39.1424 17.5882 39.0341 17.6904C38.9258 17.7926 38.7974 17.8713 38.6571 17.9217C38.5167 17.9721 38.3673 17.9931 38.2184 17.9832V17.9832ZM36.3342 27.3999C36.3412 27.8974 36.5464 28.3718 36.9047 28.7186C37.263 29.0655 37.7451 29.2565 38.2448 29.2495C38.7446 29.2425 39.2211 29.0382 39.5695 28.6815C39.9179 28.3248 40.1097 27.8449 40.1027 27.3474C40.1306 26.8076 39.956 26.2768 39.6128 25.858L39.0325 26.2332C39.2711 26.5294 39.4037 26.8964 39.4093 27.2761C39.4316 27.5341 39.3519 27.7905 39.1872 27.9909C39.0226 28.1912 38.7859 28.3198 38.5275 28.3491L38.5275 25.6854C38.4295 25.6854 38.3315 25.6854 38.226 25.6854C37.0954 25.6854 36.3417 26.3832 36.3417 27.3887L36.3342 27.3999ZM37.0351 27.3999C37.0326 27.2832 37.0532 27.167 37.0958 27.0582C37.1384 26.9494 37.2021 26.85 37.2833 26.7656C37.3645 26.6813 37.4616 26.6138 37.569 26.5668C37.6765 26.5199 37.7921 26.4945 37.9094 26.492L37.9094 28.3679C37.6675 28.3543 37.4405 28.2469 37.2771 28.0688C37.1137 27.8907 37.0268 27.656 37.0351 27.4149L37.0351 27.3999ZM38.226 7.84993L34.9775 7.84993L34.9775 8.60027L36.8618 8.60027C36.6905 8.73279 36.5533 8.90396 36.4616 9.09965C36.3698 9.29535 36.3262 9.50996 36.3342 9.72577C36.3342 10.2233 36.5327 10.7004 36.8861 11.0522C37.2394 11.404 37.7187 11.6016 38.2184 11.6016C38.7182 11.6016 39.1975 11.404 39.5508 11.0522C39.9042 10.7004 40.1027 10.2233 40.1027 9.72577C40.1107 9.50996 40.0671 9.29535 39.9753 9.09965C39.8836 8.90396 39.7464 8.73279 39.5751 8.60027L40.0123 8.60027L40.0123 7.84993L38.226 7.84993ZM39.5035 6.5481C39.5029 6.49932 39.5119 6.45089 39.5299 6.40553C39.5476 6.36245 39.5731 6.32301 39.6053 6.28923C39.6378 6.25626 39.6761 6.22956 39.7183 6.21045C39.7623 6.19145 39.8098 6.18164 39.8578 6.18164C39.9057 6.18164 39.9532 6.19145 39.9972 6.21045C40.0394 6.22956 40.0778 6.25626 40.1103 6.28923C40.1424 6.32301 40.168 6.36245 40.1856 6.40553C40.2055 6.45045 40.2158 6.499 40.2158 6.5481C40.2152 6.61922 40.1944 6.68872 40.1557 6.7485C40.117 6.80828 40.062 6.85588 39.9972 6.88575C39.9531 6.90453 39.9057 6.91421 39.8578 6.91421C39.8098 6.91421 39.7624 6.90453 39.7183 6.88575C39.6761 6.86664 39.6378 6.83993 39.6053 6.80696C39.5731 6.77319 39.5476 6.73375 39.5299 6.69066C39.5104 6.6418 39.5014 6.58939 39.5035 6.53684L39.5035 6.5481ZM40.1404 6.5481C40.1406 6.51065 40.1329 6.47358 40.1178 6.4393C40.1033 6.40702 40.0829 6.37774 40.0575 6.35301C40.0061 6.30608 39.9388 6.28005 39.8691 6.28005C39.7993 6.28005 39.7321 6.30608 39.6806 6.35301C39.6552 6.37769 39.6347 6.40698 39.6204 6.4393C39.6053 6.47362 39.5976 6.51066 39.5977 6.5481C39.5979 6.5855 39.6056 6.62249 39.6204 6.6569C39.6342 6.69061 39.6547 6.72121 39.6806 6.74694C39.7321 6.79386 39.7993 6.8199 39.8691 6.8199C39.9388 6.8199 40.0061 6.79386 40.0575 6.74694C40.0833 6.72115 40.1038 6.69056 40.1178 6.6569C40.1342 6.61905 40.1419 6.57804 40.1404 6.53684L40.1404 6.5481ZM39.692 6.52559C39.6902 6.49057 39.7009 6.45606 39.7221 6.42805C39.7316 6.41656 39.7438 6.4075 39.7576 6.40163C39.7713 6.39576 39.7863 6.39324 39.8012 6.39428C39.8138 6.39374 39.8263 6.3958 39.8379 6.40032C39.8496 6.40484 39.8602 6.41173 39.8691 6.42054C39.8889 6.44229 39.9009 6.47002 39.903 6.49932L40.0274 6.39053L40.0274 6.47681L39.903 6.57811L39.903 6.61187L40.0274 6.61187L40.0274 6.68316L39.6957 6.68316L39.692 6.52559ZM39.756 6.60813L39.8465 6.60813L39.8465 6.52559C39.8509 6.5109 39.8509 6.49526 39.8465 6.48057C39.8412 6.47793 39.8354 6.47656 39.8295 6.47656C39.8236 6.47656 39.8178 6.47793 39.8125 6.48057C39.8073 6.47793 39.8015 6.47656 39.7956 6.47656C39.7897 6.47656 39.7839 6.47793 39.7786 6.48057C39.7742 6.49526 39.7742 6.5109 39.7786 6.52559L39.756 6.60813ZM38.226 10.735C38.0139 10.7225 37.8101 10.6486 37.6397 10.5223C37.4693 10.396 37.3397 10.2229 37.2669 10.0242C37.1941 9.82556 37.1812 9.61003 37.2299 9.40417C37.2786 9.19831 37.3867 9.01112 37.5409 8.86565C37.6951 8.72017 37.8886 8.62276 38.0977 8.58542C38.3068 8.54807 38.5223 8.57242 38.7177 8.65546C38.9131 8.7385 39.0798 8.87661 39.1973 9.05278C39.3149 9.22896 39.3781 9.4355 39.3792 9.64698C39.3811 9.79553 39.352 9.94286 39.294 10.0797C39.2359 10.2165 39.15 10.3399 39.0417 10.4421C38.9333 10.5443 38.805 10.6231 38.6646 10.6735C38.5242 10.7239 38.3749 10.7448 38.226 10.735V10.735ZM38.226 37.083L36.4246 37.083L36.4246 37.8634L36.8618 37.8634C36.6905 37.9959 36.5533 38.167 36.4616 38.3627C36.3698 38.5584 36.3262 38.773 36.3342 38.9889C36.3342 39.4864 36.5327 39.9635 36.8861 40.3153C37.2394 40.6671 37.7187 40.8647 38.2184 40.8647C38.7182 40.8647 39.1975 40.6671 39.5508 40.3153C39.9042 39.9635 40.1027 39.4864 40.1027 38.9889C40.1107 38.773 40.0671 38.5584 39.9753 38.3627C39.8836 38.167 39.7464 37.9959 39.5751 37.8634L40.0123 37.8634L40.0123 37.083L38.226 37.083ZM38.226 39.9868C38.0139 39.9744 37.8101 39.9004 37.6397 39.7742C37.4693 39.6479 37.3397 39.4747 37.2669 39.2761C37.1941 39.0774 37.1812 38.8619 37.2299 38.656C37.2786 38.4501 37.3867 38.263 37.5409 38.1175C37.6951 37.972 37.8886 37.8746 38.0977 37.8372C38.3068 37.7999 38.5223 37.8243 38.7177 37.9073C38.9131 37.9903 39.0798 38.1284 39.1973 38.3046C39.3149 38.4808 39.3781 38.6873 39.3792 38.8988C39.3821 39.048 39.3539 39.1961 39.2963 39.3339C39.2386 39.4716 39.1529 39.5959 39.0445 39.6989C38.936 39.8019 38.8073 39.8814 38.6664 39.9322C38.5255 39.9831 38.3755 40.0042 38.226 39.9943L38.226 39.9868Z" fill="white"/>
<path d="M8.97266 21.6744L8.97266 33.4922L30.3065 33.4922L30.3065 21.6744L8.97266 21.6744Z" fill="#FF5F00"/>
<path d="M19.643 32.7406C17.5881 32.7428 15.5596 32.2795 13.7112 31.3857C11.8628 30.492 10.2429 29.1913 8.97414 27.5821C7.40122 29.5745 6.42312 31.9673 6.15161 34.487C5.88011 37.0067 6.32616 39.5516 7.4388 41.8309C8.55143 44.1101 10.2857 46.0318 12.4435 47.3762C14.6013 48.7206 17.0955 49.4336 19.6411 49.4336C22.1866 49.4336 24.6808 48.7206 26.8386 47.3762C28.9964 46.0318 30.7307 44.1101 31.8434 41.8309C32.956 39.5516 33.402 37.0067 33.1305 34.487C32.859 31.9673 31.8809 29.5745 30.308 27.5821C29.0397 29.1908 27.4204 30.4912 25.5727 31.3849C23.7249 32.2786 21.6972 32.7422 19.643 32.7406V32.7406Z" fill="#EB001B"/>
<path d="M19.6406 5.72851C22.1864 5.72857 24.6807 6.44169 26.8386 7.78635C28.9965 9.13101 30.7307 11.053 31.8432 13.3325C32.9557 15.612 33.4015 18.1572 33.1296 20.677C32.8577 23.1969 31.8791 25.5897 30.3057 27.582C29.0362 25.974 27.4165 24.6739 25.5686 23.7799C23.7208 22.886 21.6932 22.4215 19.6387 22.4215C17.5843 22.4215 15.5567 22.886 13.7088 23.7799C11.861 24.6739 10.2413 25.974 8.9718 27.582C7.39839 25.5897 6.41981 23.1969 6.14792 20.677C5.87603 18.1572 6.32179 15.612 7.43427 13.3325C8.54674 11.053 10.281 9.13101 12.4389 7.78635C14.5967 6.44169 17.0911 5.72857 19.6369 5.72851L19.6406 5.72851Z" fill="#F79E1B"/>
<path d="M28.0432 7.01894L27.6061 7.01894L27.6061 6.84262L27.5156 6.84262L27.5156 7.28906L27.6061 7.28906L27.6061 7.09773L28.0432 7.09773L28.0432 7.01894ZM28.0432 6.15231L27.5156 6.15231L27.5156 6.28737L27.8925 6.44494L27.5156 6.60251L27.5156 6.72256L28.0432 6.72256L28.0432 6.62502L27.6475 6.62502L27.9905 6.47871L27.9905 6.37741L27.6475 6.2311L28.047 6.2311L28.0432 6.15231Z" fill="#F79E1B"/>
</g>
<defs>
<clipPath id="clip0">
<rect width="55.0746" height="45.3774" fill="white" transform="translate(0.359375 55.1211) rotate(-90)"/>
</clipPath>
</defs>
</svg>
