<svg width="39" height="39" viewBox="0 0 39 39" fill="none" xmlns="http://www.w3.org/2000/svg">
<g clip-path="url(#clip0)">
<path d="M26.3555 24.2988C25.9348 24.2988 25.5938 24.6398 25.5938 25.0605V30.3164C25.5938 32.4165 23.8852 34.125 21.7852 34.125H13.561C13.1405 34.125 12.7996 34.4657 12.7993 34.8862L12.7982 36.4006L10.9802 34.5826C10.8625 34.3125 10.5931 34.125 10.2816 34.125H5.33203C3.23197 34.125 1.52344 32.4165 1.52344 30.3164V18.5859C1.52344 16.4859 3.23197 14.7773 5.33203 14.7773H13.0254C13.446 14.7773 13.7871 14.4363 13.7871 14.0156C13.7871 13.5949 13.446 13.2539 13.0254 13.2539H5.33203C2.39195 13.2539 0 15.6459 0 18.5859V30.3164C0 33.2565 2.39195 35.6484 5.33203 35.6484H9.89153L13.02 38.7769C13.1657 38.9226 13.3605 39 13.5587 39C13.6568 39 13.7557 38.981 13.8498 38.9421C14.1345 38.8243 14.3201 38.5468 14.3203 38.2388L14.3221 35.6484H21.7852C24.7252 35.6484 27.1172 33.2565 27.1172 30.3164V25.0605C27.1172 24.6398 26.7761 24.2988 26.3555 24.2988Z" fill="#020266"/>
<path d="M20.9473 23.6133H4.875C4.45438 23.6133 4.11328 23.9543 4.11328 24.375C4.11328 24.7957 4.45438 25.1367 4.875 25.1367H20.9473C21.368 25.1367 21.709 24.7957 21.709 24.375C21.709 23.9543 21.3679 23.6133 20.9473 23.6133Z" fill="#020266"/>
<path d="M21.4857 28.1021C21.3441 27.9604 21.1476 27.8789 20.9473 27.8789C20.7469 27.8789 20.5504 27.9604 20.4087 28.1021C20.267 28.2438 20.1855 28.4403 20.1855 28.6406C20.1855 28.841 20.2671 29.0375 20.4087 29.1792C20.5504 29.3208 20.7469 29.4023 20.9473 29.4023C21.1476 29.4023 21.3441 29.3208 21.4857 29.1792C21.6275 29.0375 21.709 28.8417 21.709 28.6406C21.709 28.4403 21.6274 28.2438 21.4857 28.1021Z" fill="#020266"/>
<path d="M17.9512 27.8789H4.875C4.45438 27.8789 4.11328 28.2199 4.11328 28.6406C4.11328 29.0613 4.45438 29.4023 4.875 29.4023H17.9512C18.3719 29.4023 18.7129 29.0613 18.7129 28.6406C18.7129 28.2199 18.3718 27.8789 17.9512 27.8789Z" fill="#020266"/>
<path d="M15.9961 19.3477H4.875C4.45438 19.3477 4.11328 19.6887 4.11328 20.1094C4.11328 20.5301 4.45438 20.8711 4.875 20.8711H15.9961C16.4168 20.8711 16.7578 20.5301 16.7578 20.1094C16.7578 19.6887 16.4167 19.3477 15.9961 19.3477Z" fill="#020266"/>
</g>
<defs>
<clipPath id="clip0">
<rect width="39" height="39" fill="white"/>
</clipPath>
</defs>
</svg>
