<svg width="26" height="26" viewBox="0 0 26 26" fill="none" xmlns="http://www.w3.org/2000/svg">
<path d="M18.6192 0H17.334C13.2642 0 9.95312 3.31104 9.95312 7.38085C9.95312 11.4507 13.2642 14.7617 17.3339 14.7617H18.6191C19.2544 14.7617 19.8831 14.681 20.4925 14.5215L22.391 16.419C22.4882 16.516 22.618 16.5676 22.7501 16.5676C22.8156 16.5676 22.8816 16.555 22.9444 16.5289C23.1341 16.4503 23.2578 16.2652 23.2578 16.0598V13.1218C24.0616 12.4709 24.7294 11.6486 25.198 10.7299C25.7302 9.68657 26 8.55979 26 7.38085C26 3.31104 22.689 0 18.6192 0ZM22.4444 12.4686C22.3171 12.5645 22.2422 12.7147 22.2422 12.8742V14.8344L20.9995 13.5924C20.9028 13.4958 20.7731 13.4437 20.6405 13.4437C20.5907 13.4437 20.5405 13.4511 20.4914 13.4662C19.887 13.6519 19.2571 13.7461 18.6192 13.7461H17.334C13.8241 13.7461 10.9688 10.8906 10.9688 7.38085C10.9688 3.87105 13.8242 1.01562 17.334 1.01562H18.6192C22.129 1.01562 24.9844 3.87105 24.9844 7.38085C24.9844 9.39844 24.0586 11.2529 22.4444 12.4686Z" fill="white"/>
<path d="M20.2634 5.55723C20.1901 4.49413 19.3331 3.63714 18.27 3.56387C17.6673 3.52248 17.0921 3.72576 16.6519 4.13673C16.2177 4.54202 15.9688 5.11493 15.9688 5.70861C15.9688 5.98908 16.1961 6.21643 16.4766 6.21643C16.757 6.21643 16.9844 5.98908 16.9844 5.70861C16.9844 5.39077 17.1124 5.09619 17.3449 4.8792C17.5772 4.66242 17.8808 4.55512 18.2002 4.57716C18.7602 4.61575 19.2116 5.06714 19.2502 5.62711C19.2892 6.19266 18.9181 6.69245 18.368 6.81554C17.9222 6.91528 17.6109 7.30264 17.6109 7.75748V8.9775C17.6109 9.25797 17.8383 9.48532 18.1187 9.48532C18.3992 9.48532 18.6265 9.25797 18.6265 8.9775V7.79806C19.6497 7.55086 20.3362 6.61455 20.2634 5.55723Z" fill="white"/>
<path d="M18.4762 10.6254C18.3818 10.5309 18.2507 10.4766 18.1172 10.4766C17.9836 10.4766 17.8526 10.5309 17.7582 10.6254C17.6637 10.7198 17.6094 10.8508 17.6094 10.9844C17.6094 11.1184 17.6638 11.2495 17.7582 11.3439C17.8526 11.4384 17.9836 11.4922 18.1172 11.4922C18.2507 11.4922 18.3818 11.4384 18.4762 11.3439C18.5707 11.2489 18.625 11.1184 18.625 10.9844C18.625 10.8508 18.5706 10.7198 18.4762 10.6254Z" fill="white"/>
</svg>
