<svg width="39" height="39" viewBox="0 0 39 39" fill="none" xmlns="http://www.w3.org/2000/svg">
<g clip-path="url(#clip0)">
<path d="M27.9288 0H26.001C19.8962 0 14.9297 4.96656 14.9297 11.0713C14.9297 17.176 19.8962 22.1425 26.0009 22.1425H27.9287C28.8816 22.1425 29.8246 22.0214 30.7387 21.7823L33.5865 24.6285C33.7323 24.7741 33.927 24.8515 34.1252 24.8515C34.2233 24.8515 34.3224 24.8325 34.4166 24.7934C34.7012 24.6755 34.8867 24.3978 34.8867 24.0897V19.6827C36.0924 18.7063 37.094 17.4728 37.7969 16.0949C38.5953 14.5299 39 12.8397 39 11.0713C39 4.96656 34.0334 0 27.9288 0ZM33.6667 18.7029C33.4757 18.8468 33.3633 19.0721 33.3633 19.3113V22.2516L31.4993 20.3885C31.3542 20.2437 31.1597 20.1656 30.9607 20.1656C30.8861 20.1656 30.8107 20.1766 30.7371 20.1993C29.8304 20.4779 28.8856 20.6191 27.9288 20.6191H26.001C20.7362 20.6191 16.4531 16.336 16.4531 11.0713C16.4531 5.80658 20.7363 1.52344 26.001 1.52344H27.9288C33.1935 1.52344 37.4766 5.80658 37.4766 11.0713C37.4766 14.0977 36.088 16.8793 33.6667 18.7029Z" fill="#020266"/>
<path d="M30.3936 8.33439C30.2837 6.73973 28.9982 5.45425 27.4035 5.34434C26.4995 5.28226 25.6367 5.58717 24.9764 6.20363C24.3251 6.81156 23.9517 7.67093 23.9517 8.56145C23.9517 8.98215 24.2928 9.32317 24.7134 9.32317C25.134 9.32317 25.4751 8.98215 25.4751 8.56145C25.4751 8.08469 25.6672 7.64282 26.0159 7.31734C26.3643 6.99216 26.8197 6.83121 27.2988 6.86427C28.1388 6.92216 28.8159 7.59925 28.8738 8.4392C28.9323 9.28752 28.3757 10.0372 27.5505 10.2218C26.8818 10.3715 26.4149 10.9525 26.4149 11.6348V13.4648C26.4149 13.8855 26.756 14.2265 27.1766 14.2265C27.5973 14.2265 27.9383 13.8855 27.9383 13.4648V11.6956C29.4731 11.3248 30.5029 9.92036 30.3936 8.33439Z" fill="#020266"/>
<path d="M27.7148 15.9405C27.5731 15.7988 27.3766 15.7173 27.1763 15.7173C26.9759 15.7173 26.7794 15.7988 26.6377 15.9405C26.4961 16.0821 26.4146 16.2787 26.4146 16.479C26.4146 16.6801 26.4961 16.8766 26.6377 17.0183C26.7794 17.16 26.9759 17.2407 27.1763 17.2407C27.3766 17.2407 27.5731 17.16 27.7148 17.0183C27.8565 16.8759 27.938 16.6801 27.938 16.479C27.938 16.2787 27.8564 16.0821 27.7148 15.9405Z" fill="#020266"/>
</g>
<defs>
<clipPath id="clip0">
<rect width="39" height="39" fill="white"/>
</clipPath>
</defs>
</svg>
